<svg id="svg" version="1.1" xmlns="http://www.w3.org/2000/svg" xmlns:xlink="http://www.w3.org/1999/xlink" width="400" height="100.81915563957152" viewBox="0, 0, 400,100.81915563957152"><g id="svgg"><path id="path0" d="M72.417 29.014 C 71.683 29.090,69.583 29.227,67.750 29.318 C 65.917 29.409,63.967 29.526,63.417 29.578 C 60.389 29.862,58.705 30.017,56.833 30.181 C 54.269 30.406,53.999 30.521,53.733 31.500 C 53.621 31.912,53.408 32.662,53.259 33.167 C 52.820 34.655,52.034 37.529,51.845 38.333 C 51.770 38.654,51.409 40.079,51.042 41.500 C 50.676 42.921,50.336 44.271,50.287 44.500 C 50.238 44.729,50.080 45.479,49.937 46.167 C 49.793 46.854,49.634 47.604,49.583 47.833 C 49.531 48.063,49.419 48.587,49.333 49.000 C 49.248 49.413,49.134 49.938,49.081 50.167 C 48.775 51.493,47.869 56.538,47.420 59.417 C 47.291 60.242,47.145 61.109,47.095 61.344 C 46.920 62.171,46.640 64.425,46.612 65.238 C 46.578 66.221,46.574 66.219,49.417 66.485 C 52.451 66.769,54.658 66.984,56.417 67.166 C 61.430 67.686,79.493 67.970,85.417 67.623 C 86.608 67.553,88.521 67.458,89.667 67.411 C 90.813 67.364,92.425 67.254,93.250 67.166 C 94.075 67.078,95.725 66.929,96.917 66.836 C 103.475 66.320,103.935 66.223,104.173 65.312 C 104.254 65.003,104.443 64.337,104.593 63.833 C 104.743 63.329,104.977 62.504,105.113 62.000 C 105.249 61.496,105.472 60.671,105.610 60.167 C 106.569 56.650,106.636 56.382,107.589 52.251 C 108.534 48.157,108.806 46.873,109.020 45.500 C 109.113 44.904,109.253 44.267,109.331 44.083 C 109.409 43.900,109.522 43.375,109.581 42.917 C 109.640 42.458,109.719 41.933,109.756 41.750 C 109.950 40.795,110.182 39.526,110.243 39.083 C 110.281 38.808,110.431 37.833,110.577 36.917 C 111.383 31.859,111.572 30.508,111.475 30.488 C 111.443 30.482,110.404 30.372,109.167 30.243 C 107.929 30.115,106.729 29.979,106.500 29.942 C 106.271 29.904,105.371 29.816,104.500 29.746 C 103.629 29.676,102.617 29.591,102.250 29.558 C 96.278 29.013,75.972 28.642,72.417 29.014 M220.313 28.908 C 220.182 29.036,217.590 29.160,212.917 29.261 C 210.258 29.318,207.999 29.434,207.895 29.519 C 207.327 29.987,207.690 31.500,208.370 31.500 C 208.450 31.500,208.690 31.688,208.902 31.917 C 209.114 32.146,209.339 32.333,209.401 32.333 C 209.533 32.333,210.505 33.003,210.748 33.263 C 210.841 33.362,211.573 33.921,212.375 34.506 C 214.093 35.758,214.028 35.507,213.025 37.026 C 210.605 40.691,210.167 41.378,210.167 41.502 C 210.167 41.578,210.106 41.664,210.033 41.694 C 209.959 41.725,209.607 42.237,209.250 42.833 C 208.893 43.429,208.541 43.942,208.467 43.972 C 208.394 44.003,208.333 44.094,208.333 44.176 C 208.333 44.257,207.967 44.869,207.520 45.537 C 206.083 47.681,203.833 51.175,203.833 51.262 C 203.833 51.309,203.755 51.438,203.659 51.549 C 203.342 51.914,202.333 53.526,202.333 53.667 C 202.333 53.743,202.277 53.831,202.208 53.861 C 202.026 53.942,201.333 54.959,201.333 55.146 C 201.333 55.234,201.273 55.331,201.200 55.361 C 201.088 55.408,200.600 56.143,199.580 57.806 C 198.947 58.837,195.844 63.586,195.673 63.785 C 195.578 63.895,195.500 64.049,195.500 64.126 C 195.500 64.203,195.181 64.716,194.792 65.266 C 193.843 66.603,193.637 66.983,193.754 67.173 C 193.815 67.272,196.677 67.333,201.165 67.333 L 208.476 67.333 208.988 66.575 C 209.270 66.158,209.500 65.778,209.500 65.730 C 209.500 65.682,209.594 65.538,209.708 65.411 C 210.012 65.072,210.226 64.775,210.432 64.408 C 210.533 64.230,210.720 63.896,210.849 63.667 C 210.978 63.438,211.125 63.212,211.175 63.167 C 211.226 63.121,211.448 62.783,211.669 62.417 C 211.890 62.050,212.162 61.656,212.274 61.542 C 212.433 61.378,215.574 61.333,226.868 61.333 L 241.261 61.333 241.459 62.042 C 241.568 62.431,241.712 63.050,241.779 63.417 C 241.923 64.200,241.918 64.179,242.042 64.500 C 242.095 64.637,242.186 65.087,242.243 65.500 C 242.300 65.912,242.434 66.494,242.540 66.792 L 242.734 67.333 250.107 67.333 C 258.302 67.333,257.794 67.423,257.435 66.043 C 257.203 65.154,257.082 64.614,256.396 61.417 C 256.258 60.775,256.040 59.800,255.910 59.250 C 255.781 58.700,255.557 57.688,255.413 57.000 C 255.269 56.313,255.086 55.525,255.008 55.250 C 254.929 54.975,254.816 54.450,254.756 54.083 C 254.696 53.717,254.580 53.192,254.500 52.917 C 254.346 52.393,253.954 50.597,253.900 50.167 C 253.883 50.029,253.781 49.579,253.674 49.167 C 253.568 48.754,253.452 48.267,253.418 48.083 C 253.384 47.900,253.271 47.375,253.168 46.917 C 253.065 46.458,252.906 45.671,252.813 45.167 C 252.721 44.663,252.580 44.100,252.500 43.917 C 252.420 43.733,252.272 43.133,252.170 42.583 C 251.967 41.480,251.660 40.030,251.253 38.250 C 251.106 37.608,250.881 36.596,250.753 36.000 C 250.625 35.404,250.400 34.392,250.253 33.750 C 250.107 33.108,249.918 32.208,249.835 31.750 C 249.662 30.802,249.326 29.644,249.170 29.457 C 249.112 29.388,248.019 29.290,246.741 29.240 C 245.463 29.190,243.963 29.078,243.409 28.992 C 242.480 28.848,220.456 28.767,220.313 28.908 M116.542 29.522 C 116.087 29.983,116.304 30.720,117.062 31.291 C 117.457 31.588,117.940 31.970,118.135 32.140 C 118.331 32.309,119.430 33.187,120.579 34.090 C 122.825 35.856,122.951 36.063,122.503 37.241 C 122.413 37.478,122.262 38.101,122.166 38.627 C 121.935 39.897,121.551 41.815,121.424 42.333 C 121.368 42.563,121.252 43.087,121.167 43.500 C 121.081 43.913,120.967 44.438,120.914 44.667 C 120.861 44.896,120.748 45.421,120.663 45.833 C 120.577 46.246,120.395 47.108,120.259 47.750 C 119.815 49.831,119.535 51.228,119.340 52.333 C 119.236 52.929,119.085 53.536,119.007 53.682 C 118.928 53.827,118.810 54.390,118.745 54.932 C 118.679 55.473,118.567 55.992,118.495 56.083 C 118.424 56.175,118.316 56.700,118.255 57.250 C 118.194 57.800,118.079 58.400,118.000 58.583 C 117.920 58.767,117.772 59.367,117.670 59.917 C 117.569 60.467,117.372 61.442,117.233 62.083 C 117.093 62.725,116.885 63.737,116.771 64.333 C 116.656 64.929,116.513 65.529,116.453 65.667 C 116.394 65.804,116.323 66.217,116.297 66.583 L 116.250 67.250 123.906 67.293 C 132.056 67.340,131.825 67.361,131.831 66.539 C 131.832 66.332,131.905 66.032,131.992 65.873 C 132.079 65.714,132.228 65.133,132.323 64.583 C 132.419 64.033,132.601 63.096,132.729 62.500 C 132.856 61.904,133.090 60.817,133.247 60.083 C 133.404 59.350,133.593 58.450,133.667 58.083 C 133.798 57.428,134.144 55.806,134.607 53.667 C 134.894 52.345,135.265 50.563,135.510 49.333 C 135.610 48.829,135.761 48.188,135.845 47.909 C 135.928 47.630,136.041 47.030,136.095 46.576 C 136.149 46.121,136.257 45.600,136.335 45.417 C 136.413 45.233,136.566 44.596,136.675 44.000 C 137.375 40.164,137.166 40.487,138.866 40.616 L 140.149 40.713 141.708 42.815 C 142.565 43.971,143.522 45.292,143.835 45.750 C 144.359 46.519,147.148 50.368,147.457 50.750 C 147.532 50.842,147.775 51.179,147.999 51.500 C 148.223 51.821,148.483 52.168,148.578 52.271 C 148.673 52.375,148.862 52.628,149.000 52.834 C 149.567 53.685,155.125 61.385,157.791 65.013 L 159.499 67.337 167.197 67.293 L 174.895 67.250 175.113 66.417 C 175.233 65.958,175.405 65.208,175.495 64.750 C 176.053 61.912,176.120 61.603,176.739 58.973 C 176.882 58.362,177.000 57.635,177.000 57.357 C 177.000 57.080,177.068 56.811,177.150 56.760 C 177.233 56.709,177.355 56.201,177.421 55.632 C 177.487 55.063,177.603 54.481,177.679 54.340 C 177.756 54.199,177.901 53.633,178.001 53.083 C 178.425 50.772,178.645 49.717,178.817 49.168 C 178.918 48.848,179.000 48.378,179.000 48.124 C 179.000 47.870,179.073 47.532,179.162 47.373 C 179.252 47.214,179.398 46.633,179.488 46.083 C 179.642 45.138,179.874 43.993,180.417 41.500 C 180.546 40.904,180.764 39.892,180.900 39.250 C 181.037 38.608,181.232 37.708,181.335 37.250 C 181.438 36.792,181.551 36.267,181.587 36.083 C 181.623 35.900,181.736 35.375,181.837 34.917 C 182.138 33.563,182.156 33.468,182.362 32.250 C 182.471 31.608,182.614 31.046,182.681 31.000 C 182.747 30.954,182.826 30.579,182.856 30.167 L 182.910 29.417 175.166 29.417 L 167.422 29.417 167.302 30.000 C 167.236 30.321,167.066 31.127,166.924 31.792 C 166.783 32.456,166.552 33.544,166.412 34.208 C 166.272 34.873,166.053 35.904,165.925 36.500 C 165.798 37.096,165.576 38.146,165.434 38.833 C 164.790 41.933,164.818 41.803,164.416 43.583 C 164.272 44.225,164.075 45.163,163.980 45.667 C 163.694 47.179,163.795 47.265,160.962 43.106 C 160.845 42.935,160.506 42.471,160.208 42.074 C 159.910 41.678,159.667 41.280,159.667 41.191 C 159.667 41.101,159.610 41.003,159.542 40.972 C 159.473 40.942,159.262 40.692,159.073 40.417 C 157.644 38.340,157.102 37.572,157.016 37.500 C 156.961 37.454,156.842 37.290,156.750 37.135 C 156.658 36.981,156.133 36.207,155.583 35.416 C 155.033 34.625,154.499 33.828,154.396 33.645 C 154.293 33.463,154.067 33.149,153.893 32.948 C 153.719 32.748,153.394 32.283,153.170 31.917 C 152.946 31.550,152.666 31.151,152.548 31.030 C 152.430 30.909,152.333 30.742,152.333 30.659 C 152.333 30.089,151.540 29.972,146.216 29.755 C 143.301 29.637,140.767 29.526,140.583 29.510 C 138.604 29.334,116.716 29.345,116.542 29.522 M267.173 29.958 C 267.015 30.520,267.036 30.613,267.374 30.882 C 267.581 31.046,268.101 31.477,268.531 31.840 C 268.960 32.203,269.385 32.500,269.475 32.500 C 269.565 32.500,269.664 32.559,269.694 32.631 C 269.725 32.702,270.200 33.107,270.750 33.529 C 271.300 33.951,271.913 34.436,272.111 34.607 C 272.310 34.777,272.672 35.062,272.914 35.240 C 273.359 35.566,273.410 36.896,272.997 37.417 C 272.925 37.508,272.811 38.033,272.745 38.583 C 272.680 39.133,272.568 39.658,272.498 39.750 C 272.428 39.842,272.315 40.401,272.248 40.993 C 272.181 41.585,272.063 42.185,271.987 42.327 C 271.911 42.468,271.767 43.033,271.667 43.583 C 271.568 44.133,271.372 45.108,271.233 45.750 C 271.093 46.392,270.890 47.404,270.781 48.000 C 270.672 48.596,270.537 49.158,270.480 49.250 C 270.395 49.386,270.239 50.180,270.088 51.250 C 270.075 51.342,270.019 51.529,269.965 51.667 C 269.910 51.804,269.783 52.404,269.683 53.000 C 269.583 53.596,269.383 54.608,269.240 55.250 C 269.097 55.892,268.872 56.923,268.740 57.542 C 268.608 58.160,268.391 59.173,268.259 59.792 C 268.126 60.410,267.972 61.142,267.916 61.417 C 267.861 61.692,267.708 62.404,267.578 63.000 C 267.059 65.370,266.841 66.435,266.797 66.833 L 266.750 67.250 274.156 67.293 C 282.203 67.341,281.826 67.385,281.831 66.385 C 281.832 66.092,281.903 65.810,281.988 65.757 C 282.111 65.681,282.416 64.023,282.372 63.667 C 282.366 63.621,282.423 63.508,282.498 63.417 C 282.573 63.325,282.689 62.800,282.755 62.250 C 282.820 61.700,282.933 61.175,283.005 61.083 C 283.076 60.992,283.189 60.467,283.255 59.917 C 283.320 59.367,283.431 58.842,283.500 58.750 C 283.569 58.658,283.680 58.133,283.745 57.583 C 283.811 57.033,283.923 56.508,283.994 56.417 C 284.064 56.325,284.171 55.913,284.232 55.500 C 284.363 54.610,284.421 54.319,284.663 53.353 C 284.763 52.951,284.877 52.426,284.916 52.186 C 284.955 51.946,285.070 51.375,285.171 50.917 C 285.273 50.458,285.385 49.933,285.421 49.750 C 285.479 49.458,285.559 49.105,285.916 47.583 C 285.959 47.400,286.062 46.837,286.144 46.333 C 286.227 45.829,286.372 45.117,286.467 44.750 C 286.562 44.383,286.762 43.483,286.911 42.750 C 287.251 41.082,287.621 39.382,287.929 38.073 C 288.060 37.517,288.167 36.913,288.167 36.731 C 288.167 36.549,288.257 36.310,288.367 36.200 C 288.477 36.090,288.526 36.000,288.476 36.000 C 288.426 36.000,288.488 35.494,288.614 34.875 C 288.739 34.256,288.948 33.225,289.078 32.583 C 289.208 31.942,289.392 31.117,289.487 30.750 C 289.581 30.383,289.661 29.915,289.663 29.708 L 289.667 29.333 278.508 29.333 L 267.349 29.333 267.173 29.958 M293.703 29.880 C 293.591 30.188,293.500 30.482,293.500 30.533 C 293.500 30.585,293.931 30.951,294.458 31.347 C 294.985 31.743,295.501 32.146,295.605 32.242 C 295.708 32.338,295.959 32.529,296.162 32.667 C 296.365 32.804,296.693 33.054,296.891 33.223 C 297.088 33.391,297.438 33.670,297.667 33.843 C 300.029 35.629,299.944 35.506,299.674 36.750 C 299.595 37.117,299.403 38.017,299.249 38.750 C 299.094 39.483,298.865 40.571,298.739 41.167 C 298.613 41.762,298.393 42.775,298.249 43.417 C 297.911 44.922,297.627 46.340,297.591 46.705 C 297.575 46.863,297.511 47.045,297.448 47.108 C 297.385 47.171,297.333 47.430,297.333 47.684 C 297.333 47.937,297.260 48.338,297.170 48.575 C 297.080 48.811,296.933 49.435,296.844 49.961 C 296.754 50.486,296.638 51.104,296.585 51.333 C 296.532 51.563,296.419 52.087,296.333 52.500 C 296.248 52.913,296.135 53.438,296.083 53.667 C 295.875 54.586,295.646 55.645,295.400 56.833 C 295.257 57.521,295.034 58.571,294.905 59.167 C 294.402 61.485,294.140 62.789,293.986 63.750 C 293.897 64.300,293.756 64.873,293.673 65.023 C 293.589 65.173,293.469 65.754,293.406 66.314 L 293.290 67.333 300.548 67.333 C 308.588 67.333,308.333 67.358,308.333 66.576 C 308.333 66.271,308.408 65.826,308.499 65.586 C 308.590 65.346,308.738 64.760,308.828 64.284 C 309.006 63.345,309.340 61.763,309.750 59.917 C 309.892 59.275,310.117 58.225,310.250 57.583 C 310.383 56.942,310.609 55.892,310.751 55.250 C 310.894 54.608,311.102 53.596,311.215 53.000 C 311.327 52.404,311.467 51.842,311.526 51.750 C 311.585 51.658,311.688 51.133,311.754 50.583 C 311.820 50.033,311.932 49.508,312.002 49.417 C 312.072 49.325,312.179 48.837,312.241 48.333 C 312.302 47.829,312.416 47.267,312.495 47.083 C 312.573 46.900,312.727 46.300,312.836 45.750 C 313.079 44.530,313.397 42.995,313.753 41.333 C 313.901 40.646,314.062 39.839,314.112 39.540 C 314.180 39.138,314.311 38.970,314.620 38.893 C 315.008 38.795,334.166 38.931,336.750 39.050 C 337.392 39.079,338.394 39.118,338.977 39.135 L 340.036 39.167 339.938 39.792 C 339.883 40.135,339.762 41.017,339.668 41.750 C 339.574 42.483,339.430 43.271,339.349 43.500 C 339.200 43.921,338.504 46.347,338.426 46.717 C 338.403 46.827,338.335 47.048,338.275 47.208 C 338.215 47.369,338.133 47.609,338.092 47.741 C 338.002 48.033,336.850 48.066,324.418 48.134 C 319.651 48.160,315.704 48.234,315.646 48.299 C 315.588 48.364,315.493 48.685,315.435 49.014 C 315.315 49.690,314.348 48.613,323.651 58.167 C 326.106 60.688,329.112 63.781,330.331 65.042 L 332.548 67.333 341.857 67.333 C 351.597 67.333,351.641 67.330,350.875 66.648 C 350.715 66.505,349.833 65.578,348.917 64.588 C 348.000 63.599,346.762 62.286,346.167 61.672 C 344.164 59.606,342.333 57.659,342.333 57.593 C 342.333 57.521,343.025 57.458,347.583 57.114 C 349.325 56.983,350.763 56.866,350.779 56.855 C 350.795 56.843,350.897 56.564,351.005 56.234 C 351.114 55.904,351.307 55.435,351.434 55.192 C 351.561 54.949,351.665 54.619,351.666 54.458 C 351.666 54.298,351.742 54.167,351.833 54.167 C 351.925 54.167,352.000 54.035,352.000 53.875 C 352.000 53.593,352.589 51.682,352.836 51.161 C 352.903 51.021,353.009 50.646,353.072 50.328 C 353.135 50.010,353.252 49.600,353.333 49.417 C 353.414 49.233,353.565 48.708,353.668 48.250 C 353.772 47.792,353.968 46.929,354.106 46.333 C 354.606 44.159,354.840 43.062,355.014 42.083 C 355.112 41.533,355.235 40.971,355.288 40.833 C 355.589 40.054,356.270 32.733,356.189 31.142 C 356.169 30.745,356.086 30.690,355.375 30.596 C 353.001 30.283,349.850 29.988,346.667 29.781 C 344.696 29.652,342.933 29.529,342.750 29.507 C 342.567 29.485,331.502 29.434,318.161 29.393 L 293.905 29.320 293.703 29.880 M236.483 39.917 C 236.575 40.008,236.725 40.496,236.818 41.000 C 236.910 41.504,237.106 42.442,237.253 43.083 C 237.400 43.725,237.625 44.737,237.753 45.333 C 237.881 45.929,238.108 46.942,238.257 47.583 C 238.406 48.225,238.620 49.237,238.732 49.833 L 238.935 50.917 229.108 50.960 C 223.703 50.983,219.245 50.967,219.201 50.923 C 219.157 50.879,219.679 49.997,220.361 48.963 C 221.043 47.929,221.781 46.783,222.000 46.417 C 222.220 46.050,222.444 45.712,222.500 45.667 C 222.556 45.621,222.782 45.283,223.003 44.917 C 223.223 44.550,223.496 44.156,223.608 44.040 C 223.720 43.925,224.059 43.381,224.361 42.832 C 224.663 42.283,224.968 41.833,225.038 41.833 C 225.109 41.833,225.167 41.730,225.167 41.604 C 225.167 41.477,225.281 41.280,225.420 41.164 C 225.559 41.049,225.791 40.706,225.934 40.403 C 226.148 39.954,226.309 39.839,226.806 39.786 C 228.121 39.643,236.321 39.754,236.483 39.917 M86.712 40.172 C 89.025 40.267,91.433 40.425,92.063 40.524 L 93.209 40.704 93.094 41.894 C 93.030 42.548,92.945 43.271,92.905 43.500 C 92.864 43.729,92.756 44.404,92.664 45.000 C 92.573 45.596,92.459 46.188,92.412 46.316 C 92.364 46.444,92.256 47.007,92.171 47.566 C 92.086 48.126,91.969 48.771,91.911 49.000 C 91.853 49.229,91.740 49.679,91.662 50.000 C 91.583 50.321,91.406 50.996,91.268 51.500 C 91.130 52.004,90.932 52.754,90.827 53.167 C 90.722 53.579,90.593 54.029,90.541 54.167 C 90.425 54.471,90.438 54.428,90.195 55.275 C 90.004 55.938,89.964 55.971,89.206 56.063 C 84.335 56.654,69.565 56.657,65.416 56.068 L 64.749 55.973 64.861 54.861 C 65.071 52.773,65.834 48.213,66.023 47.917 C 66.081 47.825,66.183 47.337,66.250 46.833 C 66.316 46.329,66.429 45.842,66.500 45.750 C 66.571 45.658,66.683 45.246,66.750 44.833 C 66.817 44.421,66.929 44.008,67.000 43.917 C 67.071 43.825,67.181 43.432,67.246 43.043 C 67.310 42.653,67.424 42.297,67.500 42.250 C 67.576 42.203,67.688 41.866,67.750 41.500 C 67.883 40.712,67.892 40.705,68.936 40.566 C 72.537 40.086,80.368 39.912,86.712 40.172 " stroke="none" fill="#0c0c0c" fill-rule="evenodd"></path><path id="path1" d="M9.125 0.207 C 8.598 0.297,8.167 0.429,8.167 0.500 C 8.167 0.571,7.904 0.679,7.583 0.739 C 7.263 0.799,7.000 0.914,7.000 0.994 C 7.000 1.075,6.775 1.190,6.500 1.250 C 6.225 1.310,6.000 1.424,6.000 1.502 C 6.000 1.580,5.851 1.691,5.669 1.749 C 4.834 2.014,2.019 4.819,1.756 5.648 C 1.694 5.842,1.580 6.000,1.502 6.000 C 1.424 6.000,1.310 6.225,1.250 6.500 C 1.190 6.775,1.075 7.000,0.994 7.000 C 0.914 7.000,0.799 7.263,0.739 7.583 C 0.679 7.904,0.574 8.167,0.506 8.167 C 0.037 8.167,0.000 11.225,-0.000 50.333 C -0.000 89.442,0.037 92.500,0.506 92.500 C 0.574 92.500,0.679 92.763,0.739 93.083 C 0.799 93.404,0.914 93.667,0.994 93.667 C 1.075 93.667,1.190 93.892,1.250 94.167 C 1.310 94.442,1.424 94.667,1.502 94.667 C 1.580 94.667,1.694 94.825,1.756 95.018 C 1.956 95.651,4.414 98.327,4.797 98.331 C 4.914 98.332,5.051 98.439,5.101 98.568 C 5.150 98.698,5.373 98.849,5.595 98.905 C 5.818 98.961,6.000 99.074,6.000 99.157 C 6.000 99.239,6.225 99.356,6.500 99.417 C 6.775 99.477,7.000 99.592,7.000 99.672 C 7.000 99.753,7.263 99.867,7.583 99.928 C 7.904 99.988,8.167 100.093,8.167 100.161 C 8.167 100.658,11.550 100.667,200.000 100.667 C 388.450 100.667,391.833 100.658,391.833 100.161 C 391.833 100.093,392.096 99.988,392.417 99.928 C 392.738 99.867,393.000 99.753,393.000 99.672 C 393.000 99.592,393.225 99.477,393.500 99.417 C 393.775 99.356,394.000 99.243,394.000 99.165 C 394.000 99.086,394.163 98.971,394.362 98.908 C 395.182 98.647,397.983 95.841,398.244 95.018 C 398.306 94.825,398.420 94.667,398.498 94.667 C 398.576 94.667,398.690 94.442,398.750 94.167 C 398.810 93.892,398.925 93.667,399.006 93.667 C 399.086 93.667,399.201 93.404,399.261 93.083 C 399.321 92.763,399.426 92.500,399.494 92.500 C 399.963 92.500,400.000 89.442,400.000 50.333 C 400.000 11.225,399.963 8.167,399.494 8.167 C 399.426 8.167,399.321 7.904,399.261 7.583 C 399.201 7.262,399.086 7.000,399.006 7.000 C 398.925 7.000,398.810 6.775,398.750 6.500 C 398.690 6.225,398.576 6.000,398.498 6.000 C 398.420 6.000,398.306 5.842,398.244 5.648 C 397.977 4.807,395.193 2.023,394.352 1.756 C 394.158 1.694,394.000 1.580,394.000 1.502 C 394.000 1.424,393.775 1.310,393.500 1.250 C 393.225 1.190,393.000 1.075,393.000 0.994 C 393.000 0.914,392.737 0.799,392.417 0.739 C 392.096 0.679,391.833 0.574,391.833 0.506 C 391.833 0.438,391.313 0.296,390.676 0.191 C 389.157 -0.060,10.590 -0.044,9.125 0.207 M384.167 50.333 L 384.167 85.000 200.000 85.000 L 15.833 85.000 15.833 50.333 L 15.833 15.667 200.000 15.667 L 384.167 15.667 384.167 50.333 M69.792 28.958 C 68.531 28.986,67.500 29.068,67.500 29.139 C 67.500 29.290,71.093 29.199,72.667 29.007 C 73.884 28.859,74.057 28.862,69.792 28.958 M93.417 29.006 C 95.263 29.205,98.718 29.317,98.560 29.173 C 98.481 29.101,97.029 29.006,95.333 28.962 C 93.520 28.914,92.731 28.932,93.417 29.006 M215.255 28.958 C 213.157 28.989,211.863 29.074,211.755 29.187 C 211.633 29.314,211.786 29.339,212.283 29.273 C 212.668 29.221,214.356 29.162,216.033 29.142 C 217.711 29.122,219.383 29.055,219.750 28.993 C 220.364 28.890,220.344 28.882,219.500 28.895 C 218.996 28.903,217.085 28.931,215.255 28.958 M243.417 29.002 C 244.298 29.170,248.203 29.300,248.042 29.155 C 247.973 29.093,246.754 29.005,245.333 28.959 C 243.912 28.913,243.050 28.932,243.417 29.002 M63.833 29.503 C 63.833 29.604,64.020 29.628,64.292 29.563 C 64.946 29.406,64.968 29.333,64.361 29.333 C 64.071 29.333,63.833 29.410,63.833 29.503 M101.417 29.500 C 101.877 29.698,102.167 29.698,102.167 29.500 C 102.167 29.408,101.923 29.339,101.625 29.345 C 101.171 29.355,101.137 29.380,101.417 29.500 M138.333 29.426 C 138.948 29.560,140.667 29.591,140.667 29.469 C 140.667 29.394,140.085 29.342,139.375 29.353 C 138.665 29.363,138.196 29.396,138.333 29.426 M167.164 29.708 C 167.163 29.915,167.115 30.271,167.056 30.500 C 166.998 30.729,167.009 30.863,167.080 30.798 C 167.274 30.620,167.477 29.333,167.311 29.333 C 167.232 29.333,167.166 29.502,167.164 29.708 M182.879 29.667 C 182.865 29.850,182.924 30.000,183.010 30.000 C 183.096 30.000,183.167 29.850,183.167 29.667 C 183.167 29.483,183.108 29.333,183.035 29.333 C 182.963 29.333,182.893 29.483,182.879 29.667 M207.425 30.085 C 207.346 30.613,207.377 30.898,207.531 31.046 C 207.976 31.471,209.167 32.358,209.167 32.264 C 209.167 32.116,208.519 31.500,208.362 31.500 C 207.688 31.500,207.364 30.193,207.877 29.542 C 207.993 29.395,207.967 29.333,207.789 29.333 C 207.619 29.333,207.501 29.576,207.425 30.085 M267.000 29.861 C 267.000 30.468,267.073 30.446,267.230 29.792 C 267.295 29.520,267.271 29.333,267.170 29.333 C 267.076 29.333,267.000 29.571,267.000 29.861 M340.500 29.426 C 341.115 29.560,342.833 29.591,342.833 29.469 C 342.833 29.394,342.252 29.342,341.542 29.353 C 340.831 29.363,340.362 29.396,340.500 29.426 M60.922 29.657 C 60.833 29.802,63.149 29.709,63.319 29.560 C 63.358 29.527,62.856 29.500,62.204 29.500 C 61.553 29.500,60.976 29.571,60.922 29.657 M102.681 29.561 C 102.838 29.700,104.989 29.784,104.905 29.647 C 104.855 29.566,104.318 29.500,103.712 29.500 C 103.107 29.500,102.642 29.528,102.681 29.561 M142.667 29.594 C 143.246 29.721,146.972 29.756,146.896 29.634 C 146.851 29.560,145.824 29.509,144.615 29.519 C 143.406 29.530,142.529 29.563,142.667 29.594 M344.014 29.561 C 344.052 29.595,344.865 29.663,345.820 29.714 C 346.877 29.769,347.464 29.746,347.320 29.655 C 347.101 29.517,343.858 29.424,344.014 29.561 M57.222 29.985 C 56.564 30.039,55.983 30.127,55.930 30.181 C 55.789 30.323,58.522 30.146,58.917 29.988 C 59.313 29.829,59.128 29.829,57.222 29.985 M106.917 29.987 C 107.347 30.159,109.795 30.332,109.485 30.169 C 109.356 30.100,108.650 30.002,107.917 29.949 C 107.183 29.896,106.733 29.913,106.917 29.987 M151.111 29.988 C 151.492 30.051,151.936 30.210,152.096 30.343 C 152.366 30.565,152.373 30.555,152.188 30.208 C 152.021 29.895,151.859 29.837,151.202 29.854 L 150.417 29.875 151.111 29.988 M249.336 29.958 C 249.343 30.324,249.662 30.566,249.664 30.208 C 249.666 30.002,249.592 29.833,249.500 29.833 C 249.408 29.833,249.334 29.890,249.336 29.958 M350.167 29.999 C 351.000 30.186,353.217 30.314,353.054 30.167 C 352.978 30.098,352.167 30.004,351.250 29.956 C 350.279 29.905,349.827 29.923,350.167 29.999 M116.125 30.095 C 115.958 30.265,115.965 30.833,116.135 30.833 C 116.272 30.833,117.160 31.519,117.699 32.042 C 118.022 32.355,118.171 32.409,118.160 32.208 C 118.156 32.140,117.748 31.783,117.252 31.417 C 116.684 30.996,116.333 30.606,116.301 30.359 C 116.273 30.144,116.194 30.025,116.125 30.095 M53.833 30.604 C 53.833 30.797,53.893 30.827,54.042 30.709 C 54.156 30.619,54.362 30.503,54.500 30.452 C 54.642 30.399,54.553 30.354,54.292 30.346 C 53.975 30.337,53.833 30.417,53.833 30.604 M354.667 30.491 C 354.804 30.585,355.198 30.663,355.542 30.664 C 356.106 30.666,356.169 30.711,356.189 31.125 C 356.210 31.546,356.218 31.551,356.287 31.189 C 356.386 30.667,356.239 30.559,355.250 30.429 C 354.658 30.351,354.489 30.369,354.667 30.491 M182.471 31.667 C 182.436 32.033,182.466 32.333,182.537 32.333 C 182.608 32.333,182.667 32.152,182.667 31.930 C 182.667 31.709,182.712 31.409,182.768 31.264 C 182.823 31.119,182.794 31.000,182.702 31.000 C 182.610 31.000,182.506 31.300,182.471 31.667 M267.502 31.111 C 267.503 31.187,267.694 31.400,267.927 31.583 C 268.159 31.767,268.600 32.123,268.905 32.375 C 269.501 32.867,269.667 32.930,269.667 32.667 C 269.667 32.575,269.563 32.500,269.437 32.500 C 269.311 32.500,269.112 32.385,268.995 32.244 C 268.656 31.835,267.500 30.958,267.502 31.111 M294.008 31.111 C 294.020 31.310,296.062 32.829,296.165 32.715 C 296.212 32.664,296.155 32.587,296.039 32.546 C 295.922 32.504,295.735 32.382,295.622 32.274 C 295.108 31.784,294.001 30.986,294.008 31.111 M53.601 31.351 C 53.440 31.861,53.331 32.500,53.406 32.500 C 53.519 32.500,53.839 31.283,53.749 31.194 C 53.708 31.153,53.642 31.223,53.601 31.351 M289.283 31.399 C 289.215 31.572,289.198 31.754,289.246 31.802 C 289.398 31.954,289.532 31.705,289.468 31.388 C 289.410 31.098,289.401 31.099,289.283 31.399 M153.008 31.681 C 153.110 31.872,153.227 31.995,153.267 31.955 C 153.384 31.838,153.148 31.333,152.976 31.333 C 152.891 31.333,152.905 31.490,153.008 31.681 M166.664 32.042 C 166.663 32.248,166.615 32.604,166.556 32.833 C 166.498 33.063,166.509 33.197,166.580 33.132 C 166.774 32.954,166.977 31.667,166.811 31.667 C 166.732 31.667,166.666 31.835,166.664 32.042 M111.251 32.458 C 111.197 32.802,111.117 33.306,111.073 33.578 C 111.026 33.873,111.054 34.008,111.142 33.911 C 111.288 33.753,111.537 31.833,111.412 31.833 C 111.377 31.833,111.304 32.115,111.251 32.458 M356.200 32.604 C 356.182 33.074,356.119 33.711,356.061 34.021 C 355.981 34.448,356.003 34.539,356.152 34.401 C 356.280 34.282,356.329 33.787,356.291 32.984 C 356.247 32.053,356.225 31.959,356.200 32.604 M153.434 32.403 C 153.490 32.548,153.609 32.667,153.698 32.667 C 153.917 32.667,153.780 32.288,153.531 32.205 C 153.409 32.164,153.372 32.240,153.434 32.403 M249.836 32.292 C 249.843 32.657,250.162 32.899,250.164 32.542 C 250.166 32.335,250.092 32.167,250.000 32.167 C 249.908 32.167,249.834 32.223,249.836 32.292 M118.333 32.431 C 118.333 32.556,118.743 32.905,119.208 33.175 C 119.694 33.458,119.536 33.234,118.917 32.761 C 118.596 32.517,118.333 32.368,118.333 32.431 M209.500 32.583 C 209.614 32.721,209.782 32.833,209.874 32.833 C 209.967 32.833,209.949 32.723,209.833 32.583 C 209.719 32.446,209.551 32.333,209.459 32.333 C 209.366 32.333,209.384 32.444,209.500 32.583 M53.117 33.000 C 53.068 33.137,52.987 33.475,52.937 33.750 L 52.847 34.250 53.098 33.690 C 53.236 33.382,53.317 33.045,53.277 32.940 C 53.232 32.820,53.173 32.842,53.117 33.000 M210.167 32.968 C 210.167 33.053,210.484 33.339,210.872 33.603 C 211.827 34.254,212.172 34.429,211.667 34.008 C 211.438 33.816,211.077 33.513,210.865 33.333 C 210.320 32.872,210.167 32.791,210.167 32.968 M269.833 32.962 C 269.833 33.043,270.168 33.351,270.578 33.645 C 270.987 33.939,271.438 34.295,271.579 34.436 C 271.721 34.578,271.903 34.669,271.985 34.638 C 272.067 34.608,271.617 34.185,270.984 33.698 C 270.351 33.211,269.833 32.880,269.833 32.962 M296.361 32.979 C 296.392 33.059,296.942 33.525,297.583 34.014 C 298.888 35.008,299.070 35.152,299.430 35.478 C 299.569 35.604,299.722 35.666,299.771 35.618 C 299.849 35.540,299.299 35.077,297.667 33.843 C 297.438 33.670,297.070 33.372,296.849 33.181 C 296.419 32.807,296.273 32.747,296.361 32.979 M119.667 33.564 C 119.667 33.599,119.873 33.761,120.125 33.923 L 120.583 34.218 120.266 33.859 C 119.985 33.541,119.667 33.385,119.667 33.564 M288.853 33.611 C 288.842 33.718,288.785 33.943,288.725 34.111 C 288.642 34.348,288.664 34.374,288.824 34.226 C 288.938 34.121,288.995 33.896,288.952 33.726 C 288.908 33.556,288.863 33.504,288.853 33.611 M166.259 34.042 C 166.110 34.526,166.024 35.567,166.151 35.333 C 166.313 35.037,166.514 33.833,166.401 33.833 C 166.358 33.833,166.294 33.927,166.259 34.042 M182.019 34.111 C 182.009 34.218,181.951 34.443,181.892 34.611 C 181.808 34.848,181.831 34.874,181.991 34.726 C 182.105 34.621,182.162 34.396,182.118 34.226 C 182.075 34.056,182.030 34.004,182.019 34.111 M120.757 34.370 C 120.832 34.562,122.000 35.417,122.000 35.279 C 122.000 35.248,121.701 34.983,121.337 34.689 C 120.972 34.396,120.711 34.252,120.757 34.370 M155.609 35.458 C 156.568 36.876,156.853 37.194,156.725 36.705 C 156.675 36.513,156.529 36.316,156.400 36.267 C 156.272 36.217,156.167 36.062,156.167 35.922 C 156.167 35.782,156.110 35.665,156.042 35.662 C 155.973 35.660,155.733 35.360,155.508 34.996 C 155.283 34.631,155.043 34.333,154.974 34.333 C 154.904 34.333,155.190 34.840,155.609 35.458 M52.601 34.851 C 52.440 35.361,52.331 36.000,52.406 36.000 C 52.519 36.000,52.839 34.783,52.749 34.694 C 52.708 34.653,52.642 34.723,52.601 34.851 M212.833 34.929 C 212.833 34.988,213.019 35.182,213.246 35.360 L 213.659 35.685 213.276 36.301 C 212.675 37.268,212.641 37.333,212.744 37.333 C 212.851 37.333,213.833 35.829,213.833 35.665 C 213.833 35.609,213.608 35.396,213.333 35.193 C 213.058 34.990,212.833 34.871,212.833 34.929 M272.333 34.964 C 272.333 35.036,272.577 35.232,272.875 35.400 L 273.417 35.705 272.932 35.269 C 272.412 34.801,272.333 34.761,272.333 34.964 M110.764 35.542 C 110.557 36.560,110.495 37.404,110.637 37.250 C 110.722 37.158,110.833 36.652,110.883 36.125 C 110.976 35.167,110.907 34.833,110.764 35.542 M165.758 36.375 C 165.722 36.490,165.648 36.883,165.593 37.250 C 165.467 38.089,165.743 37.681,165.903 36.792 C 166.008 36.209,165.903 35.909,165.758 36.375 M299.500 36.479 C 299.500 36.651,299.452 37.045,299.393 37.354 C 299.334 37.664,299.334 37.873,299.393 37.820 C 299.574 37.656,299.801 36.167,299.645 36.167 C 299.565 36.167,299.500 36.307,299.500 36.479 M181.519 36.445 C 181.509 36.552,181.451 36.777,181.392 36.945 C 181.308 37.182,181.331 37.207,181.491 37.059 C 181.605 36.955,181.662 36.730,181.618 36.559 C 181.575 36.389,181.530 36.338,181.519 36.445 M52.000 36.986 C 52.000 37.162,51.951 37.443,51.890 37.611 C 51.830 37.779,51.832 37.871,51.895 37.814 C 52.101 37.631,52.319 36.667,52.155 36.667 C 52.070 36.667,52.000 36.811,52.000 36.986 M122.345 37.125 C 122.355 37.531,122.373 37.545,122.500 37.250 C 122.696 36.795,122.696 36.667,122.500 36.667 C 122.408 36.667,122.339 36.873,122.345 37.125 M250.836 36.792 C 250.843 37.157,251.162 37.399,251.164 37.042 C 251.166 36.835,251.092 36.667,251.000 36.667 C 250.908 36.667,250.834 36.723,250.836 36.792 M355.769 37.191 C 355.593 38.332,355.545 39.333,355.665 39.333 C 355.734 39.333,355.828 38.752,355.875 38.042 C 355.966 36.677,355.913 36.255,355.769 37.191 M272.955 36.934 C 272.888 37.001,272.833 37.171,272.833 37.311 C 272.833 37.499,272.883 37.517,273.019 37.381 C 273.121 37.279,273.175 37.110,273.140 37.004 C 273.105 36.899,273.022 36.867,272.955 36.934 M157.453 38.070 C 157.779 38.506,157.897 38.526,157.741 38.120 C 157.686 37.977,157.532 37.817,157.398 37.766 C 157.216 37.696,157.229 37.771,157.453 38.070 M181.109 38.125 C 180.925 38.798,180.832 39.740,180.974 39.500 C 181.139 39.222,181.380 37.833,181.263 37.833 C 181.222 37.833,181.153 37.965,181.109 38.125 M251.279 38.431 C 251.334 38.790,251.443 39.196,251.522 39.333 C 251.609 39.483,251.624 39.283,251.562 38.833 C 251.504 38.421,251.395 38.015,251.318 37.931 C 251.241 37.847,251.224 38.072,251.279 38.431 M110.262 38.595 C 110.201 38.839,110.188 39.077,110.234 39.123 C 110.280 39.168,110.367 39.006,110.429 38.762 C 110.490 38.518,110.503 38.280,110.457 38.234 C 110.411 38.189,110.323 38.351,110.262 38.595 M51.619 38.447 C 51.575 38.522,51.493 38.921,51.437 39.333 L 51.335 40.083 51.594 39.274 C 51.824 38.556,51.839 38.077,51.619 38.447 M299.092 38.542 C 299.057 38.656,298.987 39.087,298.937 39.500 C 298.830 40.376,299.064 39.920,299.215 38.958 C 299.308 38.364,299.229 38.097,299.092 38.542 M165.164 39.125 C 165.163 39.377,165.124 39.771,165.076 40.000 C 165.004 40.350,165.014 40.363,165.137 40.083 C 165.387 39.513,165.502 38.667,165.329 38.667 C 165.240 38.667,165.166 38.873,165.164 39.125 M314.338 38.993 C 313.928 39.253,313.916 39.253,325.000 39.167 C 333.526 39.101,335.095 39.058,332.583 38.959 C 328.061 38.781,314.634 38.806,314.338 38.993 M121.845 39.458 C 121.855 39.864,121.873 39.879,122.000 39.583 C 122.196 39.128,122.196 39.000,122.000 39.000 C 121.908 39.000,121.839 39.206,121.845 39.458 M336.461 39.121 C 336.761 39.158,337.211 39.157,337.461 39.119 C 337.712 39.081,337.467 39.051,336.917 39.052 C 336.367 39.053,336.162 39.084,336.461 39.121 M211.212 39.458 C 211.152 39.619,211.004 39.849,210.884 39.970 C 210.765 40.091,210.667 40.270,210.667 40.368 C 210.667 40.465,210.830 40.329,211.030 40.064 C 211.230 39.800,211.464 39.490,211.550 39.375 C 211.654 39.238,211.642 39.167,211.515 39.167 C 211.409 39.167,211.273 39.298,211.212 39.458 M339.856 39.500 C 339.841 39.729,339.790 40.104,339.743 40.333 L 339.657 40.750 339.836 40.340 C 339.935 40.114,339.986 39.739,339.949 39.506 L 339.883 39.083 339.856 39.500 M110.189 39.528 C 110.177 39.681,110.118 39.943,110.059 40.111 C 109.976 40.347,109.998 40.374,110.156 40.228 C 110.269 40.124,110.328 39.861,110.287 39.644 C 110.246 39.427,110.202 39.375,110.189 39.528 M226.000 40.250 C 225.878 40.479,225.827 40.716,225.889 40.778 C 225.950 40.839,226.000 40.762,226.000 40.606 C 226.000 40.450,226.112 40.280,226.250 40.227 C 226.514 40.126,226.597 39.833,226.361 39.833 C 226.285 39.833,226.123 40.021,226.000 40.250 M79.051 40.124 C 80.041 40.154,81.616 40.154,82.551 40.124 C 83.485 40.095,82.675 40.070,80.750 40.071 C 78.825 40.071,78.060 40.095,79.051 40.124 M236.517 40.448 C 236.507 40.741,236.575 41.027,236.667 41.083 C 236.858 41.202,236.858 40.932,236.667 40.333 C 236.539 39.935,236.532 39.941,236.517 40.448 M313.920 40.417 C 313.872 40.646,313.791 41.040,313.738 41.292 C 313.678 41.582,313.701 41.689,313.800 41.583 C 313.887 41.492,314.005 41.098,314.064 40.708 C 314.178 39.951,314.064 39.721,313.920 40.417 M87.542 40.282 C 87.702 40.323,87.965 40.323,88.125 40.282 C 88.285 40.240,88.154 40.205,87.833 40.205 C 87.513 40.205,87.381 40.240,87.542 40.282 M159.192 40.573 C 159.299 40.808,159.452 41.000,159.533 41.000 C 159.703 41.000,159.409 40.400,159.165 40.249 C 159.069 40.190,159.081 40.329,159.192 40.573 M180.587 40.583 C 180.539 40.813,180.457 41.206,180.405 41.458 C 180.345 41.749,180.367 41.856,180.467 41.750 C 180.553 41.658,180.672 41.265,180.731 40.875 C 180.845 40.118,180.731 39.888,180.587 40.583 M251.779 40.764 C 251.834 41.123,251.947 41.529,252.030 41.667 C 252.125 41.825,252.141 41.642,252.073 41.167 C 252.014 40.754,251.901 40.348,251.822 40.264 C 251.742 40.179,251.722 40.397,251.779 40.764 M51.111 40.444 C 51.050 40.506,51.005 40.712,51.011 40.903 C 51.020 41.222,51.034 41.218,51.181 40.851 C 51.344 40.443,51.310 40.245,51.111 40.444 M69.667 40.500 C 69.472 40.626,69.518 40.662,69.875 40.664 C 70.127 40.666,70.333 40.592,70.333 40.500 C 70.333 40.289,69.993 40.289,69.667 40.500 M91.167 40.510 C 91.167 40.596,91.479 40.667,91.861 40.667 C 92.684 40.667,92.657 40.584,91.792 40.451 C 91.445 40.397,91.167 40.424,91.167 40.510 M287.304 40.750 C 287.196 41.249,287.248 41.474,287.429 41.293 C 287.482 41.240,287.499 40.984,287.468 40.724 L 287.411 40.250 287.304 40.750 M137.367 40.700 C 137.123 40.943,137.107 41.167,137.333 41.167 C 137.425 41.167,137.500 41.059,137.500 40.928 C 137.500 40.795,137.704 40.658,137.958 40.619 C 138.411 40.551,138.411 40.550,137.992 40.525 C 137.758 40.511,137.477 40.590,137.367 40.700 M67.950 40.792 C 67.776 41.101,67.666 41.853,67.807 41.766 C 67.892 41.714,67.995 41.445,68.035 41.169 C 68.109 40.668,68.083 40.554,67.950 40.792 M355.258 40.875 C 355.094 41.399,355.003 42.400,355.141 42.167 C 355.309 41.882,355.520 40.667,355.401 40.667 C 355.358 40.667,355.294 40.760,355.258 40.875 M164.778 40.944 C 164.717 41.006,164.673 41.287,164.682 41.569 L 164.697 42.083 164.858 41.523 C 165.019 40.964,164.987 40.735,164.778 40.944 M298.498 41.292 C 298.496 41.544,298.457 41.938,298.410 42.167 C 298.338 42.516,298.347 42.530,298.470 42.250 C 298.720 41.680,298.835 40.833,298.662 40.833 C 298.573 40.833,298.499 41.040,298.498 41.292 M225.367 41.200 C 225.131 41.435,225.105 41.667,225.314 41.667 C 225.395 41.667,225.500 41.517,225.548 41.333 C 225.650 40.944,225.634 40.933,225.367 41.200 M159.676 41.250 C 159.676 41.342,159.897 41.679,160.167 42.000 C 160.437 42.321,160.658 42.508,160.658 42.417 C 160.658 42.325,160.437 41.987,160.167 41.667 C 159.897 41.346,159.676 41.158,159.676 41.250 M121.455 41.434 C 121.388 41.501,121.336 41.712,121.338 41.903 C 121.343 42.223,121.357 42.227,121.517 41.952 C 121.703 41.632,121.656 41.233,121.455 41.434 M92.833 42.528 C 92.833 43.561,92.916 43.535,93.057 42.458 C 93.119 41.982,93.095 41.667,92.997 41.667 C 92.907 41.667,92.833 42.054,92.833 42.528 M271.833 42.010 C 271.833 42.199,271.908 42.307,272.000 42.250 C 272.092 42.193,272.167 42.039,272.167 41.907 C 272.167 41.775,272.092 41.667,272.000 41.667 C 271.908 41.667,271.833 41.821,271.833 42.010 M236.904 42.055 C 236.957 42.223,237.000 42.579,237.000 42.847 C 237.000 43.114,237.073 43.333,237.162 43.333 C 237.347 43.333,237.206 42.386,236.964 42.000 C 236.841 41.802,236.828 41.814,236.904 42.055 M339.425 42.042 C 339.270 42.546,339.177 43.733,339.311 43.500 C 339.487 43.196,339.706 41.833,339.580 41.833 C 339.530 41.833,339.461 41.927,339.425 42.042 M109.689 42.167 C 109.674 42.304,109.615 42.604,109.558 42.833 C 109.478 43.155,109.501 43.207,109.657 43.062 C 109.768 42.959,109.827 42.659,109.788 42.395 C 109.749 42.132,109.704 42.029,109.689 42.167 M67.450 42.292 C 67.279 42.595,67.153 43.407,67.300 43.250 C 67.473 43.067,67.719 42.167,67.596 42.167 C 67.554 42.167,67.488 42.223,67.450 42.292 M252.272 43.000 C 252.329 43.413,252.447 43.825,252.534 43.917 C 252.635 44.022,252.650 43.840,252.575 43.417 C 252.403 42.445,252.145 42.090,252.272 43.000 M313.442 42.625 C 313.258 43.298,313.165 44.240,313.308 44.000 C 313.472 43.722,313.713 42.333,313.597 42.333 C 313.556 42.333,313.486 42.465,313.442 42.625 M50.500 42.917 C 50.500 43.146,50.529 43.333,50.564 43.333 C 50.599 43.333,50.664 43.146,50.707 42.917 C 50.751 42.688,50.723 42.500,50.644 42.500 C 50.565 42.500,50.500 42.688,50.500 42.917 M141.710 43.068 C 141.915 43.389,142.145 43.656,142.220 43.660 C 142.371 43.667,141.743 42.734,141.494 42.580 C 141.408 42.526,141.505 42.746,141.710 43.068 M180.087 42.917 C 180.039 43.146,179.957 43.540,179.905 43.792 C 179.843 44.089,179.866 44.191,179.971 44.083 C 180.153 43.895,180.414 42.500,180.268 42.500 C 180.216 42.500,180.134 42.688,180.087 42.917 M224.341 42.819 C 224.239 43.010,224.224 43.167,224.310 43.167 C 224.481 43.167,224.717 42.662,224.601 42.545 C 224.560 42.505,224.443 42.628,224.341 42.819 M208.754 43.209 C 208.307 43.944,208.285 44.000,208.444 43.999 C 208.521 43.998,208.754 43.698,208.963 43.332 C 209.416 42.540,209.229 42.430,208.754 43.209 M286.804 43.083 C 286.696 43.583,286.748 43.807,286.929 43.626 C 286.982 43.574,286.999 43.317,286.968 43.057 L 286.911 42.583 286.804 43.083 M136.853 42.945 C 136.842 43.052,136.785 43.277,136.725 43.445 C 136.642 43.682,136.664 43.707,136.824 43.559 C 136.938 43.455,136.995 43.230,136.952 43.059 C 136.908 42.889,136.863 42.838,136.853 42.945 M354.743 43.458 C 354.685 43.802,354.598 44.233,354.550 44.417 C 354.492 44.636,354.518 44.693,354.626 44.583 C 354.791 44.416,355.057 42.833,354.921 42.833 C 354.881 42.833,354.801 43.115,354.743 43.458 M271.607 43.292 C 271.409 43.995,271.325 44.741,271.470 44.500 C 271.553 44.362,271.664 43.969,271.717 43.625 C 271.816 42.978,271.751 42.781,271.607 43.292 M298.000 43.694 C 298.000 44.301,298.073 44.279,298.230 43.625 C 298.295 43.353,298.271 43.167,298.170 43.167 C 298.076 43.167,298.000 43.404,298.000 43.694 M161.257 43.516 C 161.989 44.728,163.568 46.829,163.666 46.720 C 163.885 46.479,164.016 45.667,163.837 45.667 C 163.743 45.667,163.661 45.910,163.654 46.208 C 163.646 46.506,163.598 46.637,163.546 46.500 C 163.494 46.362,163.350 46.190,163.226 46.117 C 163.102 46.043,163.000 45.881,163.000 45.756 C 163.000 45.630,162.944 45.503,162.875 45.472 C 162.806 45.442,162.452 44.980,162.089 44.446 C 161.505 43.588,160.876 42.886,161.257 43.516 M164.278 43.444 C 164.217 43.506,164.173 43.749,164.181 43.986 C 164.195 44.409,164.198 44.408,164.342 43.925 C 164.494 43.418,164.471 43.251,164.278 43.444 M120.944 43.778 C 120.883 43.839,120.838 44.045,120.844 44.236 C 120.854 44.555,120.867 44.551,121.014 44.184 C 121.177 43.776,121.144 43.579,120.944 43.778 M66.925 44.042 C 66.723 44.697,66.659 45.233,66.800 45.083 C 66.973 44.898,67.207 43.833,67.074 43.833 C 67.028 43.833,66.961 43.927,66.925 44.042 M142.333 43.964 C 142.333 44.047,142.483 44.251,142.667 44.417 C 142.850 44.583,143.000 44.819,143.000 44.942 C 143.000 45.066,143.060 45.167,143.133 45.167 C 143.206 45.167,143.450 45.465,143.675 45.829 C 143.900 46.193,144.144 46.493,144.218 46.496 C 144.362 46.500,142.716 44.050,142.476 43.902 C 142.397 43.853,142.333 43.881,142.333 43.964 M109.268 44.184 C 109.100 44.718,109.031 45.667,109.160 45.667 C 109.237 45.667,109.332 45.310,109.371 44.875 C 109.443 44.066,109.399 43.769,109.268 44.184 M237.449 44.667 C 237.500 45.079,237.605 45.485,237.682 45.569 C 237.848 45.751,237.679 44.525,237.488 44.167 C 237.415 44.029,237.397 44.254,237.449 44.667 M207.949 44.510 C 207.876 44.791,207.902 44.817,208.096 44.656 C 208.362 44.436,208.411 44.167,208.186 44.167 C 208.105 44.167,207.999 44.321,207.949 44.510 M338.944 44.278 C 338.883 44.339,338.838 44.545,338.844 44.736 C 338.854 45.055,338.867 45.051,339.014 44.684 C 339.177 44.276,339.144 44.079,338.944 44.278 M252.779 45.264 C 252.834 45.623,252.943 46.029,253.022 46.167 C 253.109 46.317,253.124 46.117,253.062 45.667 C 253.004 45.254,252.895 44.848,252.818 44.764 C 252.741 44.681,252.724 44.906,252.779 45.264 M312.917 45.208 C 312.858 45.506,312.768 45.900,312.719 46.083 C 312.660 46.303,312.685 46.360,312.793 46.250 C 312.959 46.082,313.232 44.667,313.099 44.667 C 313.059 44.667,312.977 44.910,312.917 45.208 M179.597 45.208 C 179.377 46.301,179.339 46.726,179.475 46.578 C 179.633 46.407,179.880 44.833,179.750 44.833 C 179.708 44.833,179.639 45.002,179.597 45.208 M207.500 45.242 C 207.500 45.375,207.401 45.543,207.279 45.617 C 207.158 45.690,207.006 45.892,206.942 46.065 C 206.852 46.309,206.874 46.340,207.038 46.203 C 207.382 45.915,207.868 45.000,207.676 45.000 C 207.579 45.000,207.500 45.109,207.500 45.242 M286.356 45.167 C 286.341 45.304,286.282 45.604,286.225 45.833 C 286.145 46.155,286.167 46.207,286.324 46.062 C 286.435 45.959,286.494 45.659,286.455 45.395 C 286.415 45.132,286.371 45.029,286.356 45.167 M92.444 45.278 C 92.383 45.339,92.341 45.620,92.350 45.903 L 92.367 46.417 92.504 45.834 C 92.647 45.228,92.632 45.090,92.444 45.278 M271.109 45.458 C 270.925 46.131,270.832 47.074,270.974 46.833 C 271.139 46.555,271.380 45.167,271.263 45.167 C 271.222 45.167,271.153 45.298,271.109 45.458 M354.253 45.583 C 354.206 45.813,354.124 46.206,354.072 46.458 C 354.010 46.756,354.033 46.858,354.138 46.750 C 354.320 46.562,354.581 45.167,354.434 45.167 C 354.382 45.167,354.301 45.354,354.253 45.583 M136.288 45.434 C 136.221 45.501,136.167 45.671,136.167 45.811 C 136.167 45.999,136.216 46.017,136.352 45.881 C 136.454 45.779,136.509 45.610,136.474 45.504 C 136.438 45.399,136.355 45.367,136.288 45.434 M297.611 45.611 C 297.550 45.672,297.506 45.916,297.514 46.153 C 297.528 46.576,297.531 46.574,297.675 46.092 C 297.827 45.584,297.805 45.418,297.611 45.611 M338.331 46.208 C 338.330 46.323,338.281 46.604,338.223 46.833 C 338.165 47.063,338.160 47.212,338.212 47.167 C 338.263 47.121,338.321 47.008,338.339 46.917 C 338.358 46.825,338.437 46.581,338.516 46.375 C 338.603 46.145,338.596 46.000,338.496 46.000 C 338.406 46.000,338.332 46.094,338.331 46.208 M120.336 46.542 C 120.338 46.845,120.369 46.869,120.500 46.667 C 120.709 46.344,120.709 46.167,120.500 46.167 C 120.408 46.167,120.334 46.335,120.336 46.542 M221.205 47.671 C 220.732 48.402,220.399 48.998,220.464 48.995 C 220.623 48.988,222.230 46.508,222.137 46.414 C 222.097 46.374,221.677 46.940,221.205 47.671 M237.949 47.000 C 238.000 47.413,238.113 47.825,238.201 47.917 C 238.301 48.023,238.316 47.840,238.242 47.417 C 238.070 46.446,237.838 46.116,237.949 47.000 M108.753 46.917 C 108.706 47.146,108.624 47.540,108.572 47.792 C 108.511 48.082,108.534 48.189,108.634 48.083 C 108.720 47.992,108.839 47.598,108.897 47.208 C 109.011 46.451,108.898 46.221,108.753 46.917 M206.500 46.695 C 206.500 46.803,206.400 47.009,206.277 47.154 C 205.942 47.550,205.293 48.667,205.398 48.667 C 205.448 48.667,205.740 48.273,206.046 47.792 C 206.868 46.498,206.867 46.500,206.677 46.500 C 206.579 46.500,206.500 46.588,206.500 46.695 M253.178 47.125 C 253.224 47.614,253.477 47.886,253.488 47.458 C 253.495 47.206,253.425 47.000,253.333 47.000 C 253.242 47.000,253.172 47.056,253.178 47.125 M312.455 47.101 C 312.388 47.168,312.333 47.337,312.333 47.478 C 312.333 47.665,312.383 47.684,312.519 47.548 C 312.621 47.446,312.675 47.276,312.640 47.171 C 312.605 47.065,312.522 47.034,312.455 47.101 M144.950 47.545 C 145.513 48.438,146.062 49.160,146.128 49.095 C 146.209 49.013,145.032 47.333,144.894 47.333 C 144.852 47.333,144.877 47.429,144.950 47.545 M135.783 47.899 C 135.715 48.072,135.698 48.254,135.746 48.302 C 135.898 48.454,136.032 48.205,135.968 47.888 C 135.910 47.598,135.901 47.599,135.783 47.899 M270.592 47.875 C 270.437 48.382,270.359 49.374,270.485 49.236 C 270.633 49.074,270.852 47.667,270.729 47.667 C 270.689 47.667,270.627 47.760,270.592 47.875 M91.845 48.458 C 91.855 48.864,91.873 48.879,92.000 48.583 C 92.196 48.128,92.196 48.000,92.000 48.000 C 91.908 48.000,91.839 48.206,91.845 48.458 M297.012 48.458 C 297.022 48.864,297.040 48.879,297.167 48.583 C 297.362 48.128,297.362 48.000,297.167 48.000 C 297.075 48.000,297.005 48.206,297.012 48.458 M331.127 48.118 C 331.334 48.158,331.634 48.156,331.794 48.115 C 331.953 48.073,331.783 48.040,331.417 48.042 C 331.050 48.044,330.920 48.078,331.127 48.118 M119.836 48.875 C 119.838 49.178,119.869 49.202,120.000 49.000 C 120.209 48.677,120.209 48.500,120.000 48.500 C 119.908 48.500,119.834 48.669,119.836 48.875 M238.438 49.167 C 238.496 49.579,238.614 49.992,238.701 50.083 C 238.801 50.189,238.816 50.006,238.742 49.583 C 238.570 48.612,238.312 48.257,238.438 49.167 M108.253 49.250 C 108.206 49.479,108.124 49.873,108.072 50.125 C 108.011 50.415,108.034 50.522,108.134 50.417 C 108.220 50.325,108.339 49.931,108.397 49.542 C 108.511 48.784,108.398 48.554,108.253 49.250 M315.167 49.389 C 315.167 49.738,321.749 56.640,321.919 56.469 C 321.948 56.440,320.473 54.884,318.641 53.011 C 316.216 50.531,315.332 49.523,315.390 49.303 C 315.433 49.136,315.401 49.000,315.318 49.000 C 315.235 49.000,315.167 49.175,315.167 49.389 M49.012 49.625 C 49.022 50.031,49.040 50.045,49.167 49.750 C 49.362 49.295,49.362 49.167,49.167 49.167 C 49.075 49.167,49.005 49.373,49.012 49.625 M253.678 49.282 C 253.716 49.714,253.977 50.081,253.988 49.718 C 253.995 49.517,253.925 49.307,253.833 49.250 C 253.742 49.193,253.672 49.208,253.678 49.282 M146.337 49.433 C 146.335 49.533,146.483 49.789,146.667 50.000 C 146.850 50.211,147.000 50.448,147.000 50.526 C 147.000 50.603,147.078 50.667,147.173 50.667 C 147.290 50.667,147.291 50.573,147.177 50.375 C 146.870 49.841,146.341 49.247,146.337 49.433 M311.955 49.434 C 311.888 49.501,311.833 49.671,311.833 49.811 C 311.833 49.999,311.883 50.017,312.019 49.881 C 312.121 49.779,312.175 49.610,312.140 49.504 C 312.105 49.399,312.022 49.367,311.955 49.434 M178.616 49.732 C 178.548 49.906,178.531 50.087,178.579 50.135 C 178.731 50.287,178.865 50.038,178.801 49.721 C 178.743 49.431,178.734 49.432,178.616 49.732 M135.283 50.232 C 135.215 50.406,135.198 50.587,135.246 50.635 C 135.398 50.787,135.532 50.538,135.468 50.221 C 135.410 49.931,135.401 49.932,135.283 50.232 M270.111 50.111 C 270.050 50.172,270.006 50.416,270.014 50.653 C 270.028 51.076,270.031 51.074,270.175 50.592 C 270.327 50.084,270.305 49.918,270.111 50.111 M285.353 50.111 C 285.342 50.218,285.285 50.443,285.225 50.611 C 285.142 50.848,285.164 50.874,285.324 50.726 C 285.438 50.621,285.495 50.396,285.452 50.226 C 285.408 50.056,285.363 50.004,285.353 50.111 M65.453 50.389 C 65.268 50.861,65.298 51.102,65.516 50.884 C 65.616 50.784,65.670 50.563,65.636 50.393 C 65.576 50.094,65.569 50.094,65.453 50.389 M91.336 50.542 C 91.338 50.845,91.369 50.869,91.500 50.667 C 91.709 50.344,91.709 50.167,91.500 50.167 C 91.408 50.167,91.334 50.335,91.336 50.542 M253.845 50.282 C 253.883 50.714,254.143 51.081,254.155 50.718 C 254.161 50.517,254.092 50.307,254.000 50.250 C 253.908 50.193,253.839 50.208,253.845 50.282 M296.611 50.444 C 296.550 50.506,296.505 50.712,296.511 50.903 C 296.520 51.222,296.534 51.218,296.681 50.851 C 296.844 50.443,296.810 50.245,296.611 50.444 M147.663 51.328 C 148.178 52.052,148.427 52.139,147.972 51.437 C 147.758 51.107,147.522 50.837,147.447 50.835 C 147.372 50.834,147.469 51.056,147.663 51.328 M107.753 51.417 C 107.706 51.646,107.624 52.040,107.572 52.292 C 107.510 52.589,107.533 52.691,107.638 52.583 C 107.820 52.395,108.081 51.000,107.934 51.000 C 107.882 51.000,107.801 51.188,107.753 51.417 M203.434 51.430 C 203.278 51.838,203.312 51.878,203.583 51.607 C 203.867 51.324,203.903 51.167,203.684 51.167 C 203.603 51.167,203.490 51.285,203.434 51.430 M254.334 52.252 C 254.396 52.665,254.508 53.059,254.582 53.127 C 254.656 53.194,254.668 53.063,254.610 52.833 C 254.552 52.604,254.504 52.210,254.502 51.958 C 254.501 51.706,254.437 51.500,254.360 51.500 C 254.283 51.500,254.271 51.838,254.334 52.252 M48.611 51.778 C 48.550 51.839,48.505 52.045,48.511 52.236 C 48.520 52.555,48.534 52.551,48.681 52.184 C 48.844 51.776,48.810 51.579,48.611 51.778 M90.836 52.375 C 90.838 52.678,90.869 52.702,91.000 52.500 C 91.209 52.177,91.209 52.000,91.000 52.000 C 90.908 52.000,90.834 52.169,90.836 52.375 M202.917 52.333 C 202.858 52.517,202.750 52.667,202.675 52.667 C 202.600 52.667,202.500 52.817,202.452 53.000 C 202.404 53.184,202.425 53.296,202.499 53.251 C 202.733 53.106,203.329 52.000,203.172 52.000 C 203.090 52.000,202.975 52.150,202.917 52.333 M134.853 52.445 C 134.842 52.552,134.785 52.777,134.725 52.945 C 134.642 53.182,134.664 53.207,134.824 53.059 C 134.938 52.955,134.995 52.730,134.952 52.559 C 134.908 52.389,134.863 52.338,134.853 52.445 M284.793 52.750 C 284.749 52.979,284.777 53.167,284.856 53.167 C 284.935 53.167,285.000 52.979,285.000 52.750 C 285.000 52.521,284.971 52.333,284.936 52.333 C 284.901 52.333,284.836 52.521,284.793 52.750 M269.500 52.896 C 269.500 53.114,269.460 53.545,269.412 53.854 C 269.348 54.265,269.364 54.327,269.471 54.083 C 269.704 53.551,269.827 52.500,269.656 52.500 C 269.570 52.500,269.500 52.678,269.500 52.896 M296.111 52.778 C 296.050 52.839,296.005 53.045,296.011 53.236 C 296.020 53.555,296.034 53.551,296.181 53.184 C 296.344 52.776,296.310 52.579,296.111 52.778 M148.833 52.924 C 148.833 52.973,148.989 53.180,149.180 53.382 L 149.526 53.750 149.320 53.292 C 149.140 52.893,148.833 52.661,148.833 52.924 M118.955 53.267 C 118.888 53.334,118.833 53.504,118.833 53.644 C 118.833 53.832,118.883 53.851,119.019 53.715 C 119.121 53.613,119.175 53.443,119.140 53.337 C 119.105 53.232,119.022 53.201,118.955 53.267 M64.962 53.659 C 64.846 54.070,64.915 54.307,65.097 54.125 C 65.150 54.072,65.167 53.853,65.135 53.639 L 65.076 53.250 64.962 53.659 M90.455 53.767 C 90.388 53.834,90.333 54.004,90.333 54.144 C 90.333 54.332,90.383 54.351,90.519 54.215 C 90.621 54.113,90.675 53.943,90.640 53.837 C 90.605 53.732,90.522 53.701,90.455 53.767 M254.779 54.264 C 254.923 55.205,255.163 55.559,255.051 54.667 C 255.000 54.254,254.895 53.848,254.818 53.764 C 254.742 53.681,254.724 53.906,254.779 54.264 M201.713 54.208 C 201.387 54.630,201.276 54.888,201.473 54.766 C 201.671 54.644,202.066 54.000,201.943 54.000 C 201.905 54.000,201.802 54.094,201.713 54.208 M177.589 54.549 C 177.517 54.713,177.506 54.894,177.563 54.952 C 177.732 55.121,177.868 54.883,177.791 54.555 C 177.721 54.264,177.712 54.263,177.589 54.549 M48.003 54.875 C 48.005 55.178,48.036 55.202,48.167 55.000 C 48.375 54.677,48.375 54.500,48.167 54.500 C 48.075 54.500,48.001 54.669,48.003 54.875 M134.295 54.993 C 134.180 55.403,134.249 55.640,134.430 55.459 C 134.483 55.406,134.501 55.187,134.468 54.973 L 134.410 54.583 134.295 54.993 M284.295 54.993 C 284.180 55.403,284.249 55.640,284.430 55.459 C 284.483 55.406,284.501 55.187,284.468 54.973 L 284.410 54.583 284.295 54.993 M268.998 55.292 C 268.996 55.544,268.954 55.938,268.903 56.167 C 268.836 56.467,268.854 56.514,268.966 56.333 C 269.195 55.966,269.338 54.833,269.156 54.833 C 269.070 54.833,268.999 55.040,268.998 55.292 M295.611 55.111 C 295.550 55.172,295.505 55.378,295.511 55.569 C 295.520 55.889,295.534 55.885,295.681 55.517 C 295.844 55.109,295.810 54.912,295.611 55.111 M150.777 55.594 C 150.832 55.737,151.016 56.018,151.185 56.219 C 151.355 56.419,151.650 56.771,151.841 57.000 C 152.033 57.229,151.882 56.948,151.505 56.375 C 150.832 55.351,150.580 55.080,150.777 55.594 M66.167 56.172 C 66.576 56.298,69.789 56.391,69.653 56.273 C 69.615 56.239,68.721 56.174,67.667 56.128 C 66.612 56.081,65.938 56.101,66.167 56.172 M85.872 56.167 C 84.840 56.231,83.956 56.322,83.908 56.370 C 83.775 56.503,87.684 56.320,88.250 56.166 L 88.750 56.030 88.250 56.041 C 87.975 56.046,86.905 56.103,85.872 56.167 M255.278 56.542 C 255.423 57.301,255.500 57.325,255.500 56.611 C 255.500 56.275,255.427 56.000,255.338 56.000 C 255.244 56.000,255.219 56.230,255.278 56.542 M310.453 56.389 C 310.268 56.861,310.298 57.102,310.516 56.884 C 310.616 56.784,310.670 56.563,310.636 56.393 C 310.576 56.094,310.569 56.094,310.453 56.389 M200.056 56.792 C 199.898 57.044,199.691 57.362,199.593 57.500 C 199.448 57.706,199.460 57.716,199.667 57.554 C 199.943 57.338,200.571 56.333,200.430 56.333 C 200.381 56.333,200.213 56.540,200.056 56.792 M283.924 56.542 C 283.761 57.066,283.670 58.066,283.807 57.833 C 283.975 57.549,284.186 56.333,284.068 56.333 C 284.025 56.333,283.960 56.427,283.924 56.542 M76.960 56.618 C 77.168 56.658,77.468 56.656,77.627 56.615 C 77.786 56.573,77.617 56.540,77.250 56.542 C 76.883 56.544,76.753 56.578,76.960 56.618 M177.122 56.767 C 177.055 56.834,177.000 57.004,177.000 57.144 C 177.000 57.332,177.049 57.351,177.185 57.215 C 177.287 57.113,177.342 56.943,177.307 56.837 C 177.272 56.732,177.188 56.701,177.122 56.767 M133.776 57.395 C 133.707 57.658,133.690 57.912,133.738 57.960 C 133.872 58.094,134.036 57.558,133.965 57.218 C 133.918 56.996,133.868 57.042,133.776 57.395 M346.222 57.153 C 345.290 57.206,344.481 57.296,344.424 57.353 C 344.269 57.509,348.212 57.313,348.500 57.151 C 348.684 57.047,348.640 57.016,348.333 57.033 C 348.104 57.046,347.154 57.100,346.222 57.153 M47.503 57.708 C 47.505 58.012,47.536 58.035,47.667 57.833 C 47.875 57.510,47.875 57.333,47.667 57.333 C 47.575 57.333,47.501 57.502,47.503 57.708 M268.498 57.708 C 268.496 57.915,268.448 58.271,268.390 58.500 C 268.332 58.729,268.342 58.863,268.413 58.798 C 268.607 58.620,268.810 57.333,268.644 57.333 C 268.565 57.333,268.499 57.502,268.498 57.708 M295.003 57.875 C 295.005 58.178,295.036 58.202,295.167 58.000 C 295.375 57.677,295.375 57.500,295.167 57.500 C 295.075 57.500,295.001 57.669,295.003 57.875 M342.333 57.579 C 342.333 57.668,344.295 59.745,346.651 62.150 C 347.513 63.030,347.987 63.450,347.705 63.083 C 347.423 62.717,346.305 61.508,345.221 60.398 C 344.137 59.287,343.100 58.184,342.917 57.947 C 342.614 57.555,342.333 57.378,342.333 57.579 M198.431 59.264 C 197.906 60.053,197.508 60.731,197.547 60.770 C 197.586 60.809,198.043 60.191,198.563 59.397 C 199.083 58.602,199.481 57.925,199.447 57.891 C 199.413 57.858,198.956 58.475,198.431 59.264 M117.833 58.343 C 117.833 58.532,117.908 58.640,118.000 58.583 C 118.092 58.527,118.167 58.372,118.167 58.240 C 118.167 58.108,118.092 58.000,118.000 58.000 C 117.908 58.000,117.833 58.154,117.833 58.343 M323.679 58.445 C 324.785 59.664,328.181 63.041,328.240 62.982 C 328.324 62.899,323.556 58.000,323.392 58.000 C 323.328 58.000,323.457 58.200,323.679 58.445 M152.783 58.378 C 153.346 59.271,153.895 59.994,153.961 59.928 C 154.042 59.847,152.866 58.167,152.728 58.167 C 152.685 58.167,152.710 58.262,152.783 58.378 M255.770 58.792 C 255.927 59.446,256.000 59.468,256.000 58.861 C 256.000 58.571,255.924 58.333,255.830 58.333 C 255.729 58.333,255.705 58.520,255.770 58.792 M310.019 58.611 C 310.009 58.718,309.951 58.943,309.892 59.111 C 309.808 59.348,309.831 59.374,309.991 59.226 C 310.105 59.121,310.162 58.896,310.118 58.726 C 310.075 58.556,310.030 58.504,310.019 58.611 M283.426 58.875 C 283.270 59.382,283.192 60.374,283.318 60.236 C 283.467 60.074,283.685 58.667,283.562 58.667 C 283.522 58.667,283.461 58.760,283.426 58.875 M176.628 59.159 C 176.513 59.570,176.582 59.807,176.763 59.625 C 176.817 59.572,176.834 59.353,176.802 59.139 L 176.743 58.750 176.628 59.159 M133.358 59.445 C 133.345 59.643,133.285 59.943,133.225 60.111 C 133.143 60.346,133.165 60.373,133.322 60.229 C 133.434 60.125,133.494 59.825,133.455 59.562 C 133.404 59.225,133.376 59.190,133.358 59.445 M117.607 59.625 C 117.409 60.328,117.325 61.074,117.470 60.833 C 117.553 60.696,117.664 60.302,117.717 59.958 C 117.816 59.311,117.751 59.114,117.607 59.625 M268.092 59.708 C 267.944 60.193,267.857 61.233,267.985 61.000 C 268.147 60.704,268.347 59.500,268.234 59.500 C 268.191 59.500,268.127 59.594,268.092 59.708 M294.503 60.208 C 294.505 60.512,294.536 60.535,294.667 60.333 C 294.875 60.010,294.875 59.833,294.667 59.833 C 294.575 59.833,294.501 60.002,294.503 60.208 M154.170 60.293 C 154.168 60.409,154.317 60.632,154.500 60.789 C 154.683 60.946,154.833 61.170,154.833 61.287 C 154.833 61.404,154.891 61.500,154.961 61.500 C 155.031 61.500,155.273 61.800,155.500 62.167 C 155.727 62.533,155.974 62.833,156.050 62.833 C 156.126 62.833,155.882 62.402,155.509 61.875 C 154.480 60.424,154.174 60.063,154.170 60.293 M47.111 60.444 C 47.050 60.506,47.005 60.712,47.011 60.903 C 47.020 61.222,47.034 61.218,47.181 60.851 C 47.344 60.443,47.310 60.245,47.111 60.444 M256.267 60.944 C 256.420 61.583,256.500 61.643,256.500 61.121 C 256.500 60.882,256.422 60.638,256.327 60.579 C 256.213 60.509,256.192 60.635,256.267 60.944 M309.449 61.066 C 309.381 61.239,309.365 61.420,309.413 61.468 C 309.565 61.620,309.699 61.371,309.635 61.055 C 309.576 60.765,309.568 60.765,309.449 61.066 M132.996 61.097 C 132.994 61.181,132.927 61.531,132.847 61.875 C 132.767 62.219,132.759 62.500,132.829 62.500 C 132.967 62.500,133.191 61.136,133.073 61.017 C 133.033 60.977,132.998 61.013,132.996 61.097 M197.097 61.274 C 196.938 61.688,197.113 61.744,197.326 61.348 C 197.428 61.156,197.442 61.000,197.357 61.000 C 197.272 61.000,197.155 61.123,197.097 61.274 M282.926 61.208 C 282.770 61.715,282.692 62.707,282.818 62.569 C 282.981 62.391,283.213 61.000,283.080 61.000 C 283.030 61.000,282.961 61.094,282.926 61.208 M176.128 61.493 C 176.013 61.903,176.082 62.140,176.263 61.959 C 176.317 61.906,176.334 61.687,176.302 61.473 L 176.243 61.083 176.128 61.493 M117.109 61.792 C 116.925 62.464,116.832 63.407,116.974 63.167 C 117.139 62.888,117.380 61.500,117.263 61.500 C 117.222 61.500,117.153 61.631,117.109 61.792 M211.703 62.335 C 211.494 62.701,211.392 63.000,211.476 63.000 C 211.559 63.000,211.671 62.869,211.724 62.708 C 211.778 62.548,211.945 62.248,212.098 62.042 C 212.250 61.835,212.309 61.667,212.229 61.668 C 212.149 61.669,211.912 61.969,211.703 62.335 M267.500 62.528 C 267.500 63.135,267.573 63.113,267.730 62.458 C 267.795 62.186,267.771 62.000,267.670 62.000 C 267.576 62.000,267.500 62.237,267.500 62.528 M196.097 62.774 C 195.938 63.188,196.113 63.244,196.326 62.848 C 196.428 62.656,196.442 62.500,196.357 62.500 C 196.272 62.500,196.155 62.623,196.097 62.774 M256.770 63.292 C 256.927 63.946,257.000 63.968,257.000 63.361 C 257.000 63.071,256.924 62.833,256.830 62.833 C 256.729 62.833,256.705 63.020,256.770 63.292 M211.000 63.349 C 211.000 63.450,210.845 63.750,210.655 64.016 C 210.466 64.282,210.393 64.500,210.493 64.500 C 210.593 64.500,210.743 64.320,210.827 64.100 C 210.911 63.879,211.059 63.650,211.156 63.590 C 211.380 63.451,211.387 63.167,211.167 63.167 C 211.075 63.167,211.000 63.249,211.000 63.349 M308.949 63.399 C 308.881 63.572,308.865 63.754,308.913 63.802 C 309.065 63.954,309.199 63.705,309.135 63.388 C 309.076 63.098,309.068 63.099,308.949 63.399 M132.493 63.431 C 132.489 63.515,132.424 63.902,132.348 64.292 C 132.273 64.681,132.267 65.000,132.334 65.000 C 132.465 65.000,132.683 63.464,132.568 63.347 C 132.531 63.309,132.497 63.347,132.493 63.431 M282.417 63.500 C 282.360 63.592,282.346 63.667,282.384 63.667 C 282.423 63.667,282.399 63.973,282.331 64.347 C 282.262 64.721,282.263 64.965,282.332 64.888 C 282.474 64.731,282.711 63.333,282.595 63.333 C 282.554 63.333,282.473 63.408,282.417 63.500 M156.694 63.794 C 156.835 64.118,159.264 67.325,159.371 67.329 C 159.438 67.331,158.886 66.508,158.144 65.500 C 156.966 63.897,156.502 63.351,156.694 63.794 M175.616 63.899 C 175.548 64.072,175.531 64.254,175.579 64.302 C 175.731 64.454,175.865 64.205,175.801 63.888 C 175.743 63.598,175.734 63.599,175.616 63.899 M46.503 64.208 C 46.505 64.512,46.536 64.535,46.667 64.333 C 46.875 64.010,46.875 63.833,46.667 63.833 C 46.575 63.833,46.501 64.002,46.503 64.208 M116.592 64.208 C 116.437 64.715,116.359 65.707,116.485 65.569 C 116.633 65.407,116.852 64.000,116.729 64.000 C 116.689 64.000,116.627 64.094,116.592 64.208 M195.167 64.238 C 195.167 64.369,195.069 64.575,194.949 64.696 C 194.829 64.818,194.680 65.029,194.618 65.167 C 194.556 65.304,194.382 65.585,194.232 65.792 C 194.082 65.998,193.999 66.167,194.047 66.167 C 194.156 66.167,195.323 64.554,195.446 64.234 C 195.495 64.105,195.453 64.000,195.351 64.000 C 195.250 64.000,195.167 64.107,195.167 64.238 M267.000 64.861 C 267.000 65.468,267.073 65.446,267.230 64.792 C 267.295 64.520,267.271 64.333,267.170 64.333 C 267.076 64.333,267.000 64.571,267.000 64.861 M293.622 64.601 C 293.555 64.668,293.500 64.837,293.500 64.978 C 293.500 65.165,293.549 65.184,293.685 65.048 C 293.787 64.946,293.842 64.776,293.807 64.671 C 293.772 64.565,293.688 64.534,293.622 64.601 M257.178 65.198 C 257.207 65.727,257.476 66.106,257.488 65.635 C 257.495 65.388,257.425 65.140,257.333 65.083 C 257.242 65.027,257.172 65.079,257.178 65.198 M308.443 65.728 C 308.374 65.991,308.356 66.245,308.405 66.294 C 308.539 66.428,308.703 65.891,308.631 65.551 C 308.585 65.329,308.535 65.376,308.443 65.728 M350.176 65.956 C 350.492 66.298,350.844 66.640,350.958 66.714 C 351.073 66.789,351.167 66.959,351.167 67.092 C 351.167 67.225,351.242 67.333,351.333 67.333 C 351.681 67.333,351.473 66.954,350.689 66.157 C 349.746 65.200,349.326 65.035,350.176 65.956 M46.345 65.875 C 46.335 66.287,46.389 66.332,46.875 66.317 C 47.357 66.302,47.372 66.288,47.015 66.188 C 46.795 66.126,46.556 65.927,46.485 65.746 C 46.375 65.464,46.355 65.482,46.345 65.875 M103.947 65.897 C 103.895 66.032,103.642 66.174,103.385 66.213 C 102.922 66.283,102.923 66.284,103.441 66.308 C 103.906 66.331,104.338 65.949,104.108 65.719 C 104.071 65.682,103.999 65.763,103.947 65.897 M281.955 65.767 C 281.888 65.834,281.833 66.004,281.833 66.144 C 281.833 66.332,281.883 66.351,282.019 66.215 C 282.121 66.113,282.175 65.943,282.140 65.837 C 282.105 65.732,282.022 65.701,281.955 65.767 M131.935 66.018 C 131.753 66.599,131.688 67.333,131.820 67.333 C 131.900 67.333,131.998 67.015,132.039 66.625 C 132.115 65.899,132.065 65.605,131.935 66.018 M175.137 66.250 C 175.030 66.749,175.082 66.974,175.263 66.793 C 175.315 66.740,175.333 66.484,175.301 66.224 L 175.245 65.750 175.137 66.250 M331.750 66.666 C 332.025 66.986,332.269 67.280,332.292 67.319 C 332.315 67.357,332.370 67.353,332.414 67.308 C 332.459 67.264,332.215 66.970,331.873 66.655 L 331.251 66.083 331.750 66.666 M116.101 66.597 C 115.962 66.959,115.974 67.333,116.125 67.333 C 116.194 67.333,116.258 67.108,116.268 66.833 C 116.288 66.270,116.248 66.214,116.101 66.597 M193.605 66.708 C 193.466 67.228,193.475 67.333,193.661 67.333 C 193.750 67.333,193.783 67.228,193.733 67.100 C 193.684 66.972,193.724 66.818,193.822 66.757 C 194.037 66.624,194.058 66.333,193.853 66.333 C 193.772 66.333,193.660 66.502,193.605 66.708 M50.500 66.667 C 50.500 66.758,50.781 66.826,51.125 66.817 C 51.683 66.802,51.705 66.786,51.333 66.667 C 50.738 66.476,50.500 66.476,50.500 66.667 M99.000 66.667 L 98.417 66.789 99.042 66.811 C 99.385 66.823,99.667 66.758,99.667 66.667 C 99.667 66.575,99.648 66.510,99.625 66.522 C 99.602 66.534,99.321 66.599,99.000 66.667 M266.611 66.778 C 266.457 66.932,266.472 67.333,266.631 67.333 C 266.703 67.333,266.774 67.183,266.788 67.000 C 266.814 66.642,266.785 66.604,266.611 66.778 M55.833 67.204 C 55.833 67.275,56.133 67.333,56.500 67.333 C 56.867 67.333,57.167 67.304,57.167 67.268 C 57.167 67.231,56.867 67.173,56.500 67.138 C 56.133 67.103,55.833 67.133,55.833 67.204 M93.167 67.167 C 92.597 67.287,92.602 67.290,93.375 67.311 C 93.810 67.323,94.167 67.258,94.167 67.167 C 94.167 66.984,94.035 66.984,93.167 67.167 M89.794 67.451 C 90.001 67.491,90.301 67.490,90.460 67.448 C 90.620 67.406,90.450 67.374,90.083 67.375 C 89.717 67.377,89.586 67.411,89.794 67.451 M63.753 67.671 C 63.808 67.760,64.461 67.833,65.204 67.833 C 65.947 67.833,66.524 67.806,66.486 67.773 C 66.310 67.621,63.661 67.522,63.753 67.671 M84.250 67.679 L 83.083 67.774 84.542 67.804 C 85.359 67.820,86.000 67.765,86.000 67.677 C 86.000 67.591,85.869 67.535,85.708 67.552 C 85.548 67.569,84.892 67.626,84.250 67.679 " stroke="none" fill="#040404" fill-rule="evenodd"></path></g></svg>