<?xml version="1.0" encoding="UTF-8" standalone="no"?>
<svg
   xmlns:dc="http://purl.org/dc/elements/1.1/"
   xmlns:cc="http://creativecommons.org/ns#"
   xmlns:rdf="http://www.w3.org/1999/02/22-rdf-syntax-ns#"
   xmlns:svg="http://www.w3.org/2000/svg"
   xmlns="http://www.w3.org/2000/svg"
   xmlns:sodipodi="http://sodipodi.sourceforge.net/DTD/sodipodi-0.dtd"
   xmlns:inkscape="http://www.inkscape.org/namespaces/inkscape"
   inkscape:version="1.0 (4035a4fb49, 2020-05-01)"
   height="1080"
   width="1114.1229"
   sodipodi:docname="Logo de la Policia Federal.svg"
   xml:space="preserve"
   viewBox="0 0 1114.1229 1080"
   y="0px"
   x="0px"
   id="Layer_1"
   version="1.1"><metadata
   id="metadata111"><rdf:RDF><cc:Work
       rdf:about=""><dc:format>image/svg+xml</dc:format><dc:type
         rdf:resource="http://purl.org/dc/dcmitype/StillImage" /><dc:title></dc:title></cc:Work></rdf:RDF></metadata><defs
   id="defs109" /><sodipodi:namedview
   inkscape:current-layer="Layer_1"
   inkscape:window-maximized="1"
   inkscape:window-y="-8"
   inkscape:window-x="1352"
   inkscape:cy="1330.2157"
   inkscape:cx="74.685354"
   inkscape:zoom="0.26247674"
   fit-margin-bottom="0"
   fit-margin-right="0"
   fit-margin-left="0"
   fit-margin-top="0"
   showguides="false"
   showgrid="false"
   id="namedview107"
   inkscape:window-height="1017"
   inkscape:window-width="1920"
   inkscape:pageshadow="2"
   inkscape:pageopacity="0"
   guidetolerance="10"
   gridtolerance="10"
   objecttolerance="10"
   borderopacity="1"
   bordercolor="#666666"
   pagecolor="#ffffff" />
<style
   id="style2"
   type="text/css">
	.st0{fill:#131F48;}
	.st1{fill:#FFFFFF;}
	.st2{fill:#151F47;}
	.st3{font-family:'MyriadPro-BlackSemiExt';}
	.st4{font-size:22.799px;}
	.st5{fill:#DCDBDA;}
	.st6{fill:#7C8696;}
	.st7{fill:#029748;}
	.st8{fill:#E21E26;}
	.st9{fill:#979EAA;}
</style>

<g
   transform="translate(-179.48,-195.98999)"
   id="g18">
	<g
   id="g10">
		<g
   id="g8">
			
		</g>
	</g>
	<g
   id="g16">
		<g
   id="g14">
			
		</g>
	</g>
</g>
<g
   transform="matrix(4.4029516,0,0,4.4029516,-790.24175,-862.93448)"
   id="g24">
	<g
   id="g22">
		<text
   id="text20"
   class="st2 st3 st4"
   transform="matrix(1.2,0,0,1,278.1074,296.9004)">CNS</text>
	</g>
</g>
<g
   transform="matrix(4.4029516,0,0,4.4029516,-790.24175,-862.93448)"
   id="g104">
	<polygon
   id="polygon26"
   points="205.52,244.94 270.69,251.36 306.01,197.07 341.35,251.36 406.48,244.94 386.4,306.42 431.47,352.94 370.77,375.95 362.05,440.31 306.01,406.77 249.91,440.38 241.2,375.94 180.53,352.94 225.61,306.42 "
   class="st0" />
	<path
   id="path28"
   d="m 224.94,306.29 4.3,0.64 -19.31,-58.75 0.9,0.08 -5.37,-3.91 -0.77,-0.08 v -0.01 0.01 0 z m 177.14,-58.11 -0.32,0.98 5.16,-3.68 0.39,-1.21 -65.66,6.47 -0.42,-0.64 -1.73,3.3 0.43,0.66 z M 240,308.48 223.39,258.1 l 1.03,0.1 -7.69,-5.75 -1.11,-0.11 18.14,55.23 z m 66.01,-89.6 0.32,0.5 v -9.46 l -0.32,-0.5 -31.85,48.62 2.78,5.38 z m -53.54,216.01 -0.19,-1.41 -2.97,6.38 0.19,1.41 56.52,-33.83 v 0 l 0.84,0.5 v -4.71 l -0.84,-0.5 z M 387.7,306.92 v 0 l -0.07,-0.07 -0.55,-0.57 v 0 l -0.02,-0.02 -4.29,0.66 0.62,0.64 42.34,43.72 -0.89,0.34 6.62,1.93 1.04,-0.4 z m -115.62,-52.88 33.93,-51.87 0.32,0.5 v -6.18 l -0.32,-0.5 -35.65,54.75 -0.73,-0.07 1.47,3.28 z m 3.79,9.28 1.08,0.11 -2.78,-5.39 -0.95,-0.09 z m 112.42,-4.23 7.61,-5.26 0.49,-1.49 -58.53,5.69 -0.43,-0.66 -2.8,5.35 0.45,0.69 53.53,-5.3 z m -16.29,49.37 36.96,38.28 -0.92,0.35 9.67,2.66 0.95,-0.36 -40.43,-41.82 z m -12.8,57.2 -0.14,1 -7.19,51.66 -1.04,-0.62 4.24,9.26 1.1,0.65 h 0.03 l 7.95,-57.55 z m 8.69,8.78 -8.35,60.45 -0.82,-0.49 2.8,6.28 1,0.6 8.68,-64.05 v 0 l 0.11,-0.84 -3.29,-2.85 z m -61.88,16.4 -45.88,27.48 v 0 l -4.3,9.29 50.19,-29.82 0.84,0.5 v -6.96 l -0.84,-0.5 v 0.01 z m -46.09,25.99 -4.3,9.29 0.21,1.49 4.3,-9.29 z m -19.22,-40.45 0.15,1.07 3.32,-2.83 -0.15,-1.1 z m -16.38,-69.46 4.3,0.64 0.62,-0.64 -4.3,-0.64 z m 8.82,1.29 6.22,0.92 0.64,-0.66 -6.24,-0.91 z m -45.53,41.77 -6.93,1.96 -1.2,1.23 61.2,23.21 3.32,-2.85 -57.69,-22.22 z m 65.19,15.68 -49.76,-18.92 1.32,-1.36 -9.71,2.67 -1.29,1.34 54.51,20.67 0.15,1.09 4.94,-4.36 z"
   class="st5" />
	<path
   id="path30"
   d="m 295.9,261.77 -3.12,-17.42 1.39,18.22 c 0.6,-0.26 1.17,-0.53 1.73,-0.8 z m -3.44,1.5 -3.31,-13.75 1.94,14.25 c 0.47,-0.16 0.93,-0.33 1.37,-0.5 z m 5.56,-26.92 -0.15,24.39 c 0.84,-0.47 1.62,-0.95 2.34,-1.42 z m -8.24,27.85 -2.95,-10.39 1.91,10.7 c 0.34,-0.1 0.69,-0.2 1.04,-0.31 z m -5.57,1.37 -2,-4.93 1.47,5.02 c 0.17,-0.03 0.35,-0.06 0.53,-0.09 z m 1.52,-0.3 -2.33,-6.4 1.66,6.53 c 0.22,-0.04 0.45,-0.09 0.67,-0.13 z m 20.2,-10.71 c 0.04,0.04 0.08,0.08 0.12,0.13 v -30.7 l -3.4,33.57 c 1.57,-1.24 2.65,-2.32 3.28,-3 z m -18.32,10.26 -2.73,-8.43 1.86,8.65 c 0.3,-0.08 0.59,-0.15 0.87,-0.22 z m 35.97,-0.19 c 0.29,0.08 0.58,0.16 0.88,0.23 l 2.75,-8.48 z m 2.77,0.67 2.34,-6.43 -3.03,6.28 c 0.23,0.05 0.46,0.1 0.69,0.15 z m 1.53,0.3 2.01,-4.96 -2.57,4.85 c 0.19,0.04 0.37,0.07 0.56,0.11 z m -45,0.19 -1.62,-3.73 1.21,3.79 c 0.14,-0.02 0.27,-0.04 0.41,-0.06 z m 28.98,-6.34 2.19,-23.1 -4.29,21.63 c 0.64,0.48 1.33,0.97 2.1,1.47 z m 2.69,1.59 c 0.53,0.29 1.08,0.57 1.63,0.83 l 3.13,-17.52 z m 5.05,2.3 3.33,-13.82 -4.66,13.29 c 0.44,0.18 0.88,0.36 1.33,0.53 z m 2.69,0.91 2.97,-10.44 -4.01,10.1 c 0.34,0.12 0.69,0.24 1.04,0.34 z m -75.69,11.42 -19.27,-14.17 18.21,16.46 z m 1.92,-4.18 -10.71,-9.04 10.08,10.42 z m 2.61,-5.67 -2.25,-2.21 2.1,2.53 z m -1.41,3.06 -6.44,-5.84 6.04,6.71 z m 0.83,-1.8 -3.87,-3.69 3.62,4.23 z m 78.64,-1.26 1.63,-3.76 -2.06,3.69 c 0.14,0.02 0.29,0.04 0.43,0.07 z m -79.8,77.5 -22.99,9.69 22.62,-6.94 c 0.1,-0.91 0.22,-1.82 0.37,-2.75 z m 2.07,-8.89 -43.76,11.77 42.5,-6.93 c 0.37,-1.64 0.8,-3.27 1.26,-4.84 z m 2.02,-6.27 c 0.39,-1.09 0.76,-2.1 1.11,-3 l -29.58,3.08 z m -1.93,-63.25 -1.3,-1.32 1.22,1.51 z m 28.73,1.22 -0.71,-1.42 0.54,1.44 c 0.06,-0.01 0.11,-0.02 0.17,-0.02 z m 0.71,-0.08 -0.98,-2.04 0.75,2.07 c 0.08,-0.01 0.15,-0.02 0.23,-0.03 z m -1.36,0.14 -0.43,-0.86 0.33,0.87 c 0.03,0 0.06,-0.01 0.1,-0.01 z m 2.21,-0.25 -1.28,-2.79 0.97,2.83 c 0.1,-0.01 0.21,-0.03 0.31,-0.04 z m -30.83,25.71 c -1.59,-1.64 -3.21,-2.97 -4.65,-4.02 l -11.76,-4.99 z m 7.66,18.82 -16.64,-3.07 16.52,4.81 c 0.06,-0.59 0.1,-1.17 0.12,-1.74 z m 109.75,-28.15 0.53,1.15 10.86,-6.29 z m -1.72,-3.69 0.72,1.55 14.27,-9.2 z M 258.64,308.2 c -0.04,-0.73 -0.12,-1.45 -0.22,-2.14 l -18.17,-5.31 z m -0.45,6.47 -18.35,-1.79 17.94,3.6 c 0.17,-0.61 0.3,-1.22 0.41,-1.81 z m -2.59,-16.9 c -0.66,-1.2 -1.39,-2.29 -2.14,-3.28 l -17.66,-7.06 z m 2.27,5.59 c -0.26,-0.96 -0.57,-1.88 -0.92,-2.75 l -19.21,-7.12 z m 106.72,-15.06 13.09,-5.55 -9.02,2.79 c -1.03,0.6 -2.48,1.52 -4.07,2.76 z m -4.22,3.86 c -0.38,0.41 -0.75,0.83 -1.11,1.27 -0.38,0.46 -0.76,0.94 -1.13,1.45 l 18.36,-7.34 z m 9.88,15.34 -17.06,1.39 c -0.02,0.57 -0.01,1.16 0.01,1.75 z m -126.34,-26 0.72,-1.57 -14.04,-9.06 z m 109.78,33.31 18.76,-1.83 -19.07,-0.07 c 0.08,0.63 0.18,1.26 0.31,1.9 z m 0.09,-10.58 c -0.15,0.67 -0.28,1.36 -0.38,2.06 l 18.62,-5.44 z m 2.14,-5.8 c -0.41,0.79 -0.78,1.62 -1.12,2.49 l 19.75,-7.33 z m 22.1,20.43 -23.84,-1.95 c 0.21,0.78 0.46,1.58 0.74,2.4 z m -134.9,-35.62 -10.64,-6.16 10.11,7.3 z m 5.73,65.36 -14.76,7.32 14.75,-5.54 c -0.01,-0.59 -0.01,-1.18 0.01,-1.78 z m 83.59,-82.39 0.44,-0.88 -0.55,0.87 c 0.04,0 0.07,0 0.11,0.01 z m -1.36,-0.14 0.99,-2.06 -1.24,2.03 c 0.08,0.01 0.16,0.02 0.25,0.03 z m 0.7,0.07 0.71,-1.44 -0.89,1.42 c 0.06,0.01 0.12,0.02 0.18,0.02 z m 29.12,0.03 2.5,-2.46 -2.66,2.13 z m 3.44,7.39 1.03,2.2 19.46,-14.16 z m -8.41,48.27 c 0.33,0.79 0.8,1.95 1.35,3.38 l 29.99,3.12 z m 48.65,24.46 -46,-17.51 c 0.6,1.72 1.22,3.63 1.8,5.63 z m -148.16,-25.62 0.01,-0.02 0.01,-0.02 c 0.19,-0.48 0.37,-0.96 0.53,-1.44 l -22.7,-0.44 21.83,2.65 c 0.2,-0.45 0.31,-0.71 0.32,-0.73 z m 105.06,-53.25 4.12,-3.93 -4.37,3.39 z m -31.25,-1.46 1.29,-2.81 -1.63,2.76 c 0.11,0.02 0.23,0.04 0.34,0.05 z m 32.09,3.27 6.7,-6.08 -7.1,5.24 z m 1.2,2.58 10.96,-9.25 -11.58,7.92 z m -3.05,-6.55 1.56,-1.58 -1.66,1.37 z m -15.93,109.38 9.2,12.83 -7.67,-13.37 c -0.49,0.2 -1,0.37 -1.53,0.54 z m -11.86,2.73 17.21,37.09 -13.19,-38.06 c -1.09,0.24 -2.46,0.56 -4.02,0.97 z m 14.87,-3.86 6.92,8.61 -5.9,-9.08 c -0.33,0.16 -0.67,0.32 -1.02,0.47 z m -7.68,2.27 12.77,20.18 -10.34,-20.69 c -0.79,0.19 -1.6,0.36 -2.43,0.51 z m -30.99,14.44 0.14,-3.11 c -0.1,0.07 -0.2,0.13 -0.3,0.2 z m 42.46,-18.73 3.86,4.44 -3.36,-4.77 c -0.17,0.11 -0.33,0.22 -0.5,0.33 z m 2.19,-1.58 2.19,2.31 -1.94,-2.51 c -0.08,0.06 -0.16,0.13 -0.25,0.2 z m -0.96,0.73 3.03,3.34 -2.67,-3.61 c -0.11,0.1 -0.24,0.19 -0.36,0.27 z m -2.82,1.79 5.32,6.52 -4.58,-6.94 c -0.24,0.15 -0.49,0.28 -0.74,0.42 z m -38.31,19.05 0.09,-5.88 c -0.19,0.11 -0.38,0.22 -0.57,0.33 z m 1.67,0.97 0.11,-7.77 c -0.25,0.13 -0.5,0.27 -0.75,0.4 z m -3.1,-1.55 0.14,-4.49 c -0.15,0.09 -0.29,0.18 -0.43,0.27 z m 10.45,-9.55 3.95,18.38 -2.12,-19.09 c -0.6,0.22 -1.21,0.46 -1.83,0.71 z m 6.97,-2.48 c -0.65,0.2 -1.32,0.42 -2.02,0.66 l 8.93,25.99 -6.28,-26.84 c -0.21,0.06 -0.42,0.12 -0.63,0.19 z m -10.3,3.89 2.54,13.81 -1.16,-14.42 c -0.46,0.21 -0.92,0.41 -1.38,0.61 z m -2.65,1.26 1.36,10.36 -0.32,-10.87 c -0.34,0.17 -0.69,0.34 -1.04,0.51 z m 39.75,-14.69 1.78,1.85 -1.58,-2.02 c -0.07,0.05 -0.14,0.11 -0.2,0.17 z m 7.27,-10.95 4.22,2.7 -4.06,-3.22 c -0.04,0.18 -0.1,0.35 -0.16,0.52 z m -6.62,10.36 1.24,1.23 -1.12,-1.35 c -0.04,0.04 -0.08,0.08 -0.12,0.12 z m 6.19,-9.16 2.93,1.84 -2.8,-2.18 c -0.04,0.11 -0.09,0.23 -0.13,0.34 z m 1.3,-4.76 -0.02,0.06 7.16,4.61 -6.93,-5.53 c -0.06,0.29 -0.13,0.58 -0.21,0.86 z m 0.62,-6.34 15.2,7.54 -15.34,-9.65 c 0.06,0.71 0.11,1.42 0.14,2.11 z m -0.12,3.76 10.37,5.86 -10.26,-7.26 c -0.02,0.48 -0.06,0.95 -0.11,1.4 z m -0.44,-9.01 23.44,9.88 -24.07,-13.15 c 0.24,1.09 0.46,2.19 0.63,3.27 z m -1.77,17.35 2.06,1.45 -1.95,-1.69 c -0.04,0.07 -0.08,0.16 -0.11,0.24 z m 1.3,-3.73 5.32,3.43 -5.15,-4.11 c -0.05,0.2 -0.11,0.43 -0.17,0.68 z m -6.53,11.36 0.82,0.77 -0.74,-0.86 c -0.03,0.04 -0.05,0.06 -0.08,0.09 z m 4.49,-6.09 0.84,0.64 -0.79,-0.73 c -0.02,0.02 -0.04,0.05 -0.05,0.09 z m 0.38,-0.77 1.48,1.06 -1.39,-1.23 c -0.04,0.06 -0.06,0.11 -0.09,0.17 z m -110.8,-6.29 -6.72,4.33 6.87,-3.5 c -0.08,-0.4 -0.13,-0.68 -0.15,-0.83 z m 7.64,13.83 -0.98,0.97 1.09,-0.88 c -0.04,-0.02 -0.08,-0.05 -0.11,-0.09 z m 0.66,0.59 -1.52,1.58 1.69,-1.44 c -0.05,-0.04 -0.11,-0.09 -0.17,-0.14 z m 2.93,2.15 -3.65,4.21 4.14,-3.9 c -0.16,-0.11 -0.33,-0.21 -0.49,-0.31 z m -2.21,-1.56 -1.95,2.05 2.18,-1.88 c -0.08,-0.05 -0.16,-0.11 -0.23,-0.17 z m 0.96,0.72 -2.8,3.08 3.16,-2.83 c -0.12,-0.08 -0.24,-0.16 -0.36,-0.25 z m -9.09,-12.25 -3.82,2.45 3.98,-2.01 c -0.06,-0.15 -0.11,-0.29 -0.16,-0.44 z m -0.47,-1.53 -4.9,3.16 5.06,-2.58 c -0.05,-0.2 -0.11,-0.4 -0.16,-0.58 z m -0.93,-4.62 -9.94,5.62 10.12,-4.45 c -0.07,-0.38 -0.13,-0.77 -0.18,-1.17 z m 2.27,8.35 -1.68,1.18 1.77,-0.99 c -0.03,-0.06 -0.06,-0.13 -0.09,-0.19 z m -0.44,-1.03 -2.53,1.58 2.65,-1.3 c -0.04,-0.1 -0.08,-0.19 -0.12,-0.28 z m 11.52,12.85 -5.12,6.28 5.88,-5.89 c -0.25,-0.13 -0.5,-0.26 -0.76,-0.39 z m 5.27,2.17 -9.06,12.64 10.74,-12.17 c -0.57,-0.14 -1.13,-0.3 -1.68,-0.47 z m 36.78,14.7 0.14,-1.16 c -0.04,-0.03 -0.08,-0.05 -0.12,-0.08 z m -5.2,2.92 1.27,-6.67 c -0.22,-0.13 -0.44,-0.25 -0.65,-0.37 z m 3.11,-1.54 0.62,-3.63 c -0.12,-0.08 -0.24,-0.15 -0.36,-0.23 z m -1.46,0.57 0.93,-4.91 c -0.16,-0.1 -0.32,-0.2 -0.48,-0.29 z m 2.58,-1.26 0.37,-2.37 c -0.08,-0.05 -0.16,-0.1 -0.23,-0.16 z m 3.79,-0.98 0.07,-0.85 c -0.03,0.02 -0.06,0.04 -0.08,0.06 z m -15.43,-7.63 -3.88,18.11 5.61,-17.38 c -0.58,-0.26 -1.16,-0.5 -1.73,-0.73 z m 4.66,12.77 2.26,-9.57 c -0.31,-0.16 -0.62,-0.33 -0.93,-0.49 z m -16.82,-16.8 -17.52,37.23 21.65,-36.06 c -1.47,-0.44 -2.86,-0.83 -4.13,-1.17 z m 28.3,12.06 0.14,-1.78 c -0.06,0.04 -0.12,0.08 -0.18,0.12 z m -35.6,-13.71 -12.69,20.03 15.31,-19.51 c -1.57,-0.33 -2.53,-0.5 -2.62,-0.52 z m 14.48,3.82 -8.84,25.74 11.43,-24.81 c -0.89,-0.34 -1.76,-0.65 -2.59,-0.93 z m 5.83,16.82 3.75,-12.93 c -0.42,-0.21 -0.85,-0.4 -1.27,-0.6 z m -28.07,-22.85 -6.75,8.4 7.84,-7.96 c -0.37,-0.14 -0.73,-0.29 -1.09,-0.44 z"
   class="st1" />
	<path
   id="path32"
   d="m 283.31,265.72 -2.05,-3.66 1.62,3.73 c 0.15,-0.02 0.29,-0.04 0.43,-0.07 z m 5.84,-16.21 3.31,13.75 c 0.45,-0.17 0.9,-0.35 1.33,-0.53 z m 3.63,-5.16 3.12,17.42 c 0.56,-0.28 1.1,-0.56 1.61,-0.84 z m -6.36,20.76 -3.02,-6.24 2.33,6.4 c 0.23,-0.05 0.46,-0.11 0.69,-0.16 z m -1.66,0.35 -2.55,-4.82 2,4.93 c 0.18,-0.04 0.36,-0.07 0.55,-0.11 z m 0.12,-9.08 2.73,8.43 c 0.3,-0.08 0.59,-0.15 0.88,-0.24 z m 13.14,-20.03 2.18,22.97 c 0.76,-0.5 1.46,-1 2.08,-1.48 z m -7.21,27.51 -3.99,-10.05 2.95,10.39 c 0.36,-0.11 0.7,-0.22 1.04,-0.34 z m 36.22,1.58 1.67,-6.57 -2.34,6.43 c 0.22,0.05 0.44,0.09 0.67,0.14 z m -3.68,-0.88 1.91,-10.75 -2.97,10.44 c 0.35,0.11 0.7,0.21 1.06,0.31 z m 1.99,0.51 1.87,-8.69 -2.75,8.48 c 0.29,0.07 0.58,0.15 0.88,0.21 z m 3.07,0.62 1.48,-5.05 -2.01,4.96 c 0.18,0.03 0.35,0.06 0.53,0.09 z m 1.2,0.19 1.21,-3.82 -1.63,3.76 c 0.14,0.02 0.28,0.04 0.42,0.06 z m -15.56,-29.53 -2.19,23.1 c 0.48,0.31 0.99,0.63 1.53,0.94 0.27,0.16 0.54,0.31 0.82,0.46 z m -8,-12.37 v 30.7 c 0.66,0.7 1.79,1.82 3.43,3.08 z m 13.26,20.37 -3.13,17.52 c 0.57,0.27 1.15,0.54 1.74,0.79 z m 3.62,5.16 -3.33,13.82 c 0.46,0.17 0.92,0.34 1.38,0.5 z m -71.66,16.01 -2.38,-1.91 2.25,2.21 z m -1.18,2.55 -6.81,-5.03 6.44,5.84 z m 0.69,-1.49 -4.1,-3.19 3.87,3.69 z m -3.17,6.88 -20.28,-11.96 19.27,14.17 z m 34.56,-7.56 -1.62,-2.74 1.28,2.79 c 0.12,-0.02 0.23,-0.04 0.34,-0.05 z m -32.17,74.22 -23.6,12.89 22.99,-9.69 c 0.18,-1.06 0.38,-2.13 0.61,-3.2 z m 4.59,-14.96 c 0.54,-1.41 1.01,-2.56 1.34,-3.34 l -30.91,6.42 z m -3.13,9.27 c 0.57,-1.98 1.19,-3.86 1.78,-5.57 L 207.7,346.2 Z m -2.34,-64.24 -11.31,-7.74 10.71,9.04 z m 30.62,-4.01 -0.54,-0.85 0.43,0.86 c 0.03,0 0.07,-0.01 0.11,-0.01 z m 0.72,-0.07 -0.88,-1.4 0.71,1.42 c 0.05,-0.01 0.11,-0.01 0.17,-0.02 z m 0.78,-0.09 -1.23,-2.01 0.98,2.04 c 0.08,-0.01 0.17,-0.02 0.25,-0.03 z m -29.61,-1.29 -1.38,-1.14 1.3,1.32 z m 110.12,3.27 3.85,-4.5 -4.12,3.93 z m -103.26,44.81 -18.64,0.07 18.35,1.79 c 0.11,-0.63 0.21,-1.25 0.29,-1.86 z m 110.46,-29.35 0.54,1.17 10.32,-7.45 z m -110.53,22.59 c -0.1,-0.69 -0.23,-1.36 -0.39,-2.01 l -17.78,-3.3 z m 109,-25.87 0.74,1.6 13.52,-10.79 z m -108.75,30.29 c 0.02,-0.58 0.02,-1.15 0,-1.71 l -16.64,-1.35 z m -22.87,-23.03 17.66,7.06 c -0.27,-0.36 -0.54,-0.7 -0.82,-1.03 -0.47,-0.57 -0.95,-1.1 -1.44,-1.61 z m -1.2,-4.79 11.76,4.99 c -1.77,-1.29 -3.22,-2.16 -4.03,-2.59 l -0.04,-0.02 z m 22.35,17.96 c -0.34,-0.85 -0.72,-1.66 -1.13,-2.43 l -18.08,-4.7 z m 98.47,20.04 0.01,0.02 c 0.01,0.03 0.15,0.34 0.38,0.89 l 22.21,-2.69 -23.1,0.45 c 0.15,0.44 0.32,0.88 0.49,1.32 z m -0.62,-19.73 c -0.34,0.89 -0.64,1.82 -0.89,2.8 l 20.63,-10.13 z m 3.32,-6.04 c -0.74,1.01 -1.45,2.12 -2.09,3.34 l 20.45,-10.68 z m 2.08,-2.53 17.48,-9.6 -13.09,5.55 c -1.4,1.09 -2.92,2.44 -4.39,4.05 z m 10.05,15.15 -17.05,3.14 c 0.02,0.58 0.07,1.18 0.13,1.79 z m -16.84,-1.21 c -0.1,0.71 -0.17,1.44 -0.2,2.19 l 18.83,-7.63 z m 0.7,10.38 18.34,-3.69 -18.76,1.83 c 0.12,0.61 0.26,1.23 0.42,1.86 z m -109.47,-36.74 0.71,-1.53 -14.74,-7.52 z m 116.42,-13.4 2.34,-2.82 -2.5,2.46 z m -28.52,-0.32 0.34,-0.88 -0.44,0.88 c 0.03,0 0.07,0 0.1,0 z m -1.23,-0.12 0.75,-2.09 -0.99,2.06 c 0.09,0.01 0.16,0.02 0.24,0.03 z m 0.64,0.07 0.54,-1.45 -0.71,1.44 c 0.06,0 0.11,0 0.17,0.01 z m 28.63,-0.68 1.46,-1.8 -1.56,1.58 z m -3.3,59.74 c 0.35,0.91 0.73,1.94 1.12,3.04 l 28.87,0.08 z M 330.54,266 l 0.98,-2.85 -1.29,2.81 c 0.1,0.01 0.21,0.03 0.31,0.04 z m 31.12,73.29 42.93,7.01 -44.2,-11.89 c 0.45,1.58 0.89,3.22 1.27,4.88 z m -103.97,-22.45 -23.42,1.91 22.7,0.44 c 0.28,-0.79 0.52,-1.58 0.72,-2.35 z m -14.05,-34.73 -11.16,-5.03 10.64,6.16 z m 121.73,-6.34 1.07,2.3 18.39,-16.47 z m -2.63,-5.64 6.29,-6.98 -6.7,6.08 z m 1.43,3.08 10.31,-10.65 -10.96,9.25 z m -115.19,73.34 -14.89,9.36 14.76,-7.32 c 0.02,-0.66 0.07,-1.34 0.13,-2.04 z m 97.46,27.42 8.03,8.15 -6.92,-8.61 c -0.36,0.16 -0.73,0.31 -1.11,0.46 z m -3.59,1.16 10.89,12.35 -9.2,-12.83 c -0.55,0.17 -1.11,0.33 -1.69,0.48 z m -3.3,0.7 c -0.02,0 -0.88,0.15 -2.34,0.46 l 15.43,19.66 -12.77,-20.18 c -0.11,0.02 -0.22,0.05 -0.32,0.06 z m 14.48,-6.33 1.97,1.68 -1.78,-1.85 c -0.06,0.05 -0.12,0.11 -0.19,0.17 z m -25.47,9.02 21.32,35.93 -17.21,-37.09 c -1.25,0.34 -2.64,0.72 -4.11,1.16 z m -20.11,8.97 0.43,2.73 -0.16,-2.91 c -0.09,0.06 -0.18,0.12 -0.27,0.18 z m 42.37,-15.68 4.38,4.12 -3.86,-4.44 c -0.17,0.11 -0.34,0.21 -0.52,0.32 z m 1.37,-0.89 3.41,3.07 -3.03,-3.34 c -0.12,0.09 -0.25,0.18 -0.38,0.27 z m -3.23,1.92 6.1,6.11 -5.32,-6.53 c -0.25,0.15 -0.51,0.29 -0.78,0.42 z m -37.18,12.62 1.33,6.98 -0.64,-7.37 c -0.23,0.13 -0.46,0.26 -0.69,0.39 z m 11.01,-5.01 11.55,25.06 -8.93,-25.99 c -0.84,0.29 -1.72,0.6 -2.62,0.93 z m -13.47,6.48 0.68,3.98 -0.29,-4.22 c -0.13,0.07 -0.26,0.15 -0.39,0.24 z m 1.13,-0.7 0.99,5.25 -0.48,-5.55 c -0.17,0.1 -0.34,0.2 -0.51,0.3 z m 8.25,-4.16 5.7,17.65 -3.95,-18.38 c -0.57,0.24 -1.16,0.48 -1.75,0.73 z m -2.87,1.3 3.83,13.21 -2.54,-13.81 c -0.42,0.19 -0.85,0.39 -1.29,0.6 z m -2.31,1.15 2.33,9.86 -1.36,-10.36 c -0.33,0.17 -0.65,0.33 -0.97,0.5 z m -64.65,-33.46 -9.82,6.95 9.94,-5.62 c -0.05,-0.43 -0.09,-0.87 -0.12,-1.33 z m 105.88,17.8 1.37,1.11 -1.24,-1.23 c -0.04,0.04 -0.09,0.08 -0.13,0.12 z m 6.58,-9.99 4.39,2.22 -4.22,-2.7 c -0.05,0.15 -0.11,0.31 -0.17,0.48 z m -0.39,1.04 3.06,1.51 -2.93,-1.83 c -0.04,0.1 -0.09,0.21 -0.13,0.32 z m 1.42,-5.03 -0.01,0.06 c 0,0.01 -0.04,0.31 -0.14,0.82 l 7.31,3.73 z m 0.33,-1.41 10.55,4.63 -10.37,-5.86 c -0.05,0.42 -0.11,0.83 -0.18,1.23 z m 0.12,-7.45 23.06,7.09 -23.44,-9.88 c 0.16,0.94 0.28,1.88 0.38,2.79 z m -2.26,14.79 2.16,1.21 -2.06,-1.45 c -0.03,0.08 -0.06,0.16 -0.1,0.24 z m 2.45,-10.5 15.19,5.71 -15.2,-7.54 c 0.02,0.62 0.02,1.23 0.01,1.83 z m -1.22,7.17 5.49,2.8 -5.32,-3.43 c -0.04,0.2 -0.1,0.41 -0.17,0.63 z m -6.43,10.81 0.9,0.69 -0.82,-0.77 c -0.03,0.03 -0.05,0.06 -0.08,0.08 z m 4.52,-6.08 0.88,0.54 -0.84,-0.64 c -0.01,0.04 -0.03,0.07 -0.04,0.1 z m 0.35,-0.69 1.55,0.9 -1.48,-1.06 c -0.02,0.05 -0.04,0.1 -0.07,0.16 z m -6.94,8.59 2.45,2.1 -2.19,-2.31 c -0.09,0.08 -0.18,0.15 -0.26,0.21 z m -95.64,-0.77 -1.35,1.73 1.52,-1.58 c -0.06,-0.06 -0.12,-0.1 -0.17,-0.15 z m -0.61,-0.54 -0.88,1.06 0.98,-0.97 c -0.03,-0.03 -0.06,-0.06 -0.1,-0.09 z m 1.26,1.09 -1.73,2.23 1.95,-2.05 c -0.07,-0.06 -0.14,-0.12 -0.22,-0.18 z m 1.97,1.43 -3.18,4.51 3.65,-4.21 c -0.16,-0.09 -0.31,-0.2 -0.47,-0.3 z m -1.12,-0.78 -2.46,3.33 2.8,-3.08 c -0.11,-0.08 -0.22,-0.16 -0.34,-0.25 z m -7.97,-10 -1.59,1.38 1.68,-1.18 c -0.03,-0.07 -0.06,-0.13 -0.09,-0.2 z m -1.4,-4.15 -4.74,3.78 4.9,-3.16 c -0.07,-0.22 -0.12,-0.43 -0.16,-0.62 z m 0.47,1.69 -3.67,2.91 3.82,-2.45 c -0.05,-0.15 -0.1,-0.31 -0.15,-0.46 z m -0.75,-3.14 -0.01,-0.06 -0.02,-0.06 c -0.06,-0.21 -0.11,-0.42 -0.16,-0.63 l -6.52,5.2 6.72,-4.33 c -0.01,-0.08 -0.01,-0.12 -0.01,-0.12 z m 12.14,17.22 -4.4,6.68 5.12,-6.28 c -0.25,-0.13 -0.49,-0.26 -0.72,-0.4 z m -10.92,-12.74 -2.42,1.88 2.53,-1.58 c -0.04,-0.11 -0.08,-0.21 -0.11,-0.3 z m 45.73,34.86 1.32,-10.06 c -0.34,-0.17 -0.67,-0.34 -1.01,-0.5 z m 2.75,-1.93 0.61,-7.04 c -0.24,-0.13 -0.48,-0.26 -0.72,-0.39 z m 4.23,-2.23 0.14,-2.52 c -0.09,-0.06 -0.17,-0.12 -0.26,-0.18 z m 0.97,-0.69 0.03,-1.24 c -0.04,-0.03 -0.09,-0.06 -0.13,-0.09 z m -3.55,1.95 0.45,-5.21 c -0.18,-0.11 -0.35,-0.21 -0.53,-0.31 z m 1.46,-0.57 0.27,-3.85 c -0.13,-0.08 -0.26,-0.17 -0.4,-0.25 z m 4.82,-2.41 0.09,0.74 -0.01,-0.79 c -0.03,0.02 -0.05,0.03 -0.08,0.05 z m 0.6,-0.42 0.19,1.56 -0.04,-1.67 c -0.04,0.04 -0.09,0.08 -0.15,0.11 z m -35.41,-12.15 c -0.83,-0.14 -1.63,-0.3 -2.42,-0.48 l -10.26,20.52 12.68,-20.04 c 0.01,0 0,0 0,0 z m -6.22,-1.61 -7.54,13.15 9.06,-12.64 c -0.52,-0.16 -1.02,-0.33 -1.52,-0.51 z m 9.48,2.28 -13.47,38.22 17.52,-37.23 c -1.55,-0.42 -2.93,-0.74 -4.05,-0.99 z m 17.06,19.97 2.48,-13.53 c -0.45,-0.21 -0.89,-0.4 -1.34,-0.6 z m -29.08,-23.3 -5.75,8.85 6.75,-8.4 c -0.33,-0.15 -0.67,-0.3 -1,-0.45 z m 20.63,5.62 -6.22,26.59 8.84,-25.74 c -0.82,-0.28 -1.62,-0.54 -2.38,-0.78 -0.08,-0.02 -0.16,-0.04 -0.24,-0.07 z m 3.72,20.82 3.88,-18.11 c -0.61,-0.25 -1.21,-0.48 -1.8,-0.71 z"
   class="st6" />
	<path
   id="path34"
   d="m 305.94,390.14 c 12.81,-10.07 33.73,-13.58 33.73,-13.58 21.42,-3.55 23.41,-21.54 23.41,-21.54 3.33,-11.67 -6.98,-34.65 -6.98,-34.65 -9.43,-23.86 14.53,-35.04 14.53,-35.04 l -10.87,-23.34 c -37.32,11.67 -53.29,-7.87 -53.81,-8.54 v -0.02 0.01 c -0.01,0 0,-0.01 0,-0.01 v 0.02 c -0.55,0.67 -16.52,20.21 -53.85,8.54 l -10.78,23.42 c 0,0 23.89,11.1 14.44,34.96 0,0 -10.32,22.99 -7,34.65 0,0 2.01,17.99 23.44,21.54 -0.01,0 20.93,3.5 33.74,13.58 z"
   class="st0" />
	<polygon
   id="polygon36"
   points="291.7,294.2 291.7,298.67 263.3,298.67 260.94,294.2 "
   class="st7" />
	<polygon
   id="polygon38"
   points="350.8,294.2 348.63,298.67 320.14,298.67 320.14,294.2 "
   class="st8" />
	<path
   id="path40"
   d="M 356.83,268.75"
   class="st5" />
	<path
   id="path42"
   d="m 293.99,359.61 h -1.12 v 4.33 h 1.39 c 2.18,0 2.52,-1.37 2.52,-2.19 0,-0.56 -0.25,-2.14 -2.79,-2.14 z m -9.67,-8.27 c 0,1.91 1.58,2.34 2.61,2.34 1,0 2.6,-0.43 2.6,-2.34 0,-1.9 -1.6,-2.33 -2.6,-2.33 -1.03,-0.01 -2.61,0.43 -2.61,2.33 z m 37.46,-32.02 -0.08,-0.08 c -0.04,0.01 -0.07,0.01 -0.1,0.02 0,0.03 -0.01,0.05 -0.01,0.08 0.02,0.04 0.03,0.08 0.05,0.12 z m -3.46,40.16 h -1.67 v 1.76 h 1.85 c 0.66,0 1.56,-0.09 1.56,-0.9 0,-0.55 -0.39,-0.86 -1.74,-0.86 z m -4.37,-57.57 c -0.01,-0.01 -0.02,-0.02 -0.04,-0.04 0.01,0.01 0.02,0.02 0.03,0.03 0.01,0.01 0.01,0.01 0.01,0.01 z m -38.43,48.19 c 0,-0.79 -0.91,-0.85 -1.91,-0.85 h -1.8 v 1.74 h 1.56 c 1.05,0 2.15,-0.05 2.15,-0.89 z m 62.89,-0.16 -1.26,2.63 h 2.46 l -1.14,-2.63 z m -8.48,10.37 -1.13,2.75 h 2.18 l -1.02,-2.75 z m 18.74,-38.95 c -2.92,-8.11 -1.86,-16.38 -1.86,-16.38 0.3,-1.79 0.76,-3.48 1.33,-5.06 h -84.42 c 0.57,1.59 1.03,3.28 1.33,5.06 0,0 1.07,8.27 -1.87,16.38 -2.93,8.12 -9.45,23.05 -7.21,32.24 0,0 0.15,11.99 16.25,15.58 0,0 19.72,2.92 33.72,12.42 13.96,-9.51 33.66,-12.42 33.66,-12.42 16.13,-3.6 16.27,-15.58 16.27,-15.58 2.26,-9.19 -4.27,-24.12 -7.2,-32.24 z m -70.7,-7.85 c 1.32,-0.68 4.05,-2.08 4.05,-2.08 0.04,-0.02 0.08,-0.04 0.12,-0.05 1.01,-0.39 1.54,-0.89 1.77,-1.16 0.06,-1.27 1,-2.37 2.6,-3 0.01,0 0.02,-0.01 0.02,-0.01 0.51,-0.19 1.45,-0.62 1.84,-0.8 1.57,-0.91 2.53,-1.01 2.71,-1.03 0.03,0 0.07,0 0.1,0 h 0.04 c 0.05,0 0.1,0 0.15,0 0.25,-0.39 0.6,-0.7 0.9,-0.95 0.09,-0.08 0.17,-0.15 0.23,-0.2 0.16,-0.17 0.71,-0.93 0.98,-1.3 0.24,-0.33 0.37,-0.51 0.46,-0.62 0.21,-0.27 0.43,-0.45 0.6,-0.56 0.48,-0.47 1.07,-0.72 1.67,-0.72 0.46,0 0.79,0.14 0.91,0.21 0.04,0.02 0.08,0.04 0.12,0.07 1.51,1 2.27,3.48 2.47,4.22 0.33,0.69 0.8,1.28 1.43,1.78 l 4.32,-4.31 c 0.28,-0.28 0.74,-0.28 1.03,0 l 4.09,4.09 c 0.26,-0.65 0.57,-1.79 0.71,-3.72 -0.05,-0.48 -0.01,-1.08 0.38,-1.53 0.27,-0.31 0.66,-0.49 1.06,-0.49 0.6,0 1.02,0.37 1.2,0.54 0.15,0.11 1.28,0.87 5.82,2.45 0,0 0.01,0 0.01,0 0.66,0.24 6.49,2.38 8.33,4.19 0.47,0.44 1.85,1.83 1.82,3.25 1.18,0.53 2.85,1.35 3.71,2.11 0.39,0.32 2.08,1.78 2.47,3.24 0.15,0.43 0.63,2.02 0.08,3.95 -0.16,0.66 -0.72,1.13 -1.38,1.13 v 0 c -0.81,0 -1.29,-0.67 -1.46,-0.91 -0.09,-0.11 -1.36,-1.68 -4.8,-2.01 -0.16,-0.01 -2.32,-0.18 -4.3,-0.18 -0.75,0 -1.31,0.02 -1.72,0.06 0.01,0.06 0.02,0.12 0.02,0.18 0,0.19 -0.08,0.38 -0.22,0.51 l -0.43,0.42 c 0.1,0.51 0.15,1.13 0.09,1.86 0.02,0.06 0.08,0.22 0.28,0.43 0.02,0.02 0.05,0.05 0.07,0.08 0.09,0.11 2.1,2.64 3.14,4.22 0.35,0.42 1.43,1.87 1.14,3.35 -0.11,0.84 -0.82,2.01 -2.44,2.11 -0.01,0.55 -0.27,1.17 -1.01,1.66 -0.02,0.14 -0.05,0.28 -0.11,0.42 -0.16,0.51 -0.56,1.04 -1.16,1.3 0.15,0.57 0.26,1.38 0.04,2.1 l 0.24,0.07 c 1.13,0.26 1.89,0.7 2.26,1.32 0.33,0.55 0.24,1.02 0.21,1.16 -0.01,0.03 -0.02,0.06 -0.03,0.09 l -1.45,3.69 c -0.01,0.04 -0.03,0.07 -0.05,0.1 -0.2,0.35 -0.71,0.77 -1.5,0.77 -0.58,0 -1.24,-0.21 -1.99,-0.65 l -9.06,-4.65 -0.71,0.03 c -0.6,0.31 -1.97,0.88 -3.93,0.88 -1.37,0 -2.77,-0.28 -4.17,-0.84 l -0.94,-0.04 -8.99,4.61 c -0.75,0.44 -1.4,0.65 -1.99,0.65 -0.79,0 -1.3,-0.41 -1.5,-0.77 -0.02,-0.03 -0.04,-0.07 -0.05,-0.1 l -1.45,-3.69 c -0.01,-0.03 -0.02,-0.06 -0.03,-0.09 -0.04,-0.13 -0.13,-0.61 0.21,-1.16 0.3,-0.49 0.84,-0.87 1.61,-1.13 -0.77,-1.12 -0.41,-2.3 0.1,-2.93 0.02,-0.04 0.05,-0.12 0.09,-0.24 -0.12,-0.11 -0.21,-0.22 -0.25,-0.28 -0.29,-0.4 -0.41,-0.87 -0.33,-1.33 -0.4,-0.68 -0.37,-1.25 -0.27,-1.61 0.01,-0.04 0.02,-0.09 0.04,-0.13 -1.36,-0.37 -2.14,-1.48 -2.43,-2.2 -0.73,-1.73 0.19,-3.3 0.87,-3.97 0.65,-0.71 3.65,-4.11 3.68,-4.15 0.01,-0.01 0.02,-0.02 0.03,-0.03 0.08,-0.08 0.13,-0.34 0.13,-0.62 l -0.69,-0.7 c -0.18,-0.18 -0.24,-0.43 -0.19,-0.66 -0.68,-0.19 -1.56,-0.33 -2.3,-0.36 -0.01,0 -0.03,0 -0.04,0 -0.05,0 -0.1,-0.01 -0.14,0 0,0.08 0.01,0.18 0.03,0.25 0.01,0.03 0.01,0.04 0.02,0.08 0.12,0.56 0.2,1.27 -0.25,1.83 -0.27,0.33 -0.67,0.52 -1.1,0.52 -0.26,0 -0.5,-0.07 -0.69,-0.16 -0.28,0.28 -0.66,0.43 -1.07,0.43 -0.16,0 -0.31,-0.02 -0.45,-0.06 -0.04,0.23 -0.12,0.46 -0.29,0.68 -0.27,0.35 -0.68,0.55 -1.12,0.55 -0.46,0 -0.85,-0.22 -1.08,-0.39 -0.32,-0.19 -0.83,-0.49 -1.02,-0.59 -0.3,-0.15 -0.58,-0.41 -0.79,-0.64 -0.99,-0.22 -1.6,-0.82 -1.87,-1.13 -1.15,-0.98 -1.55,-2.29 -1.65,-2.71 -0.54,-1.66 0.79,-3.19 2.39,-4 z m 48.78,32.97 1.47,-1.44 h 5.03 l -2.48,1.44 z m 4.02,0.6 v 8.52 h -4.03 v -8.52 z m -19.97,0 v 8.52 h -4.02 v -8.52 z m -5.76,6.34 v 2.18 h -9.8 v -8.52 h 4.02 v 6.34 z m -11.5,-2.08 c 0,2.61 -2.66,4.47 -6.62,4.47 -3.99,0 -6.65,-1.86 -6.65,-4.47 0,-2.61 2.66,-4.46 6.65,-4.46 3.97,0 6.62,1.85 6.62,4.46 z m -25.75,-4.26 h 6.75 c 3.55,0 4.79,1.68 4.79,2.91 0,2.07 -2.12,3.02 -5.12,3.02 h -2.39 v 2.59 h -4.03 z m 8.99,12.53 h -5.34 v 1.11 h 4.6 v 2.12 h -4.6 v 3.37 h -3.53 v -8.84 h 8.87 z m 10.91,6.6 h -9.66 v -8.84 h 9.5 v 2.24 h -5.96 v 1.11 h 5.42 v 2.12 h -5.42 v 1.1 h 6.13 v 2.27 z m 6.76,0 h -5.12 v -8.84 h 5.8 c 3.83,0 5.16,2.17 5.16,4.4 0,2.71 -1.86,4.44 -5.84,4.44 z m 17.04,0 h -9.67 v -8.84 h 9.49 v 2.24 h -5.96 v 1.11 h 5.41 v 2.12 h -5.41 v 1.1 h 6.14 z m 7.62,-19.33 c 3.58,0 5.55,1.23 5.89,3.36 h -3.9 c -0.08,-0.3 -0.45,-1.24 -2.11,-1.24 -1.89,0 -2.48,1.2 -2.48,2.33 0,1.14 0.6,2.34 2.48,2.34 1.37,0 1.88,-0.62 2.12,-1.42 h 3.96 c 0,1.72 -2.15,3.55 -5.96,3.55 -4.22,0 -6.63,-1.94 -6.63,-4.47 0,-2.69 2.59,-4.45 6.63,-4.45 z m 1.31,19.33 c -0.17,-0.45 -0.25,-0.91 -0.29,-1.38 -0.11,-0.83 -0.2,-1.7 -1.6,-1.7 h -1.87 v 3.08 h -3.53 v -8.84 h 6.73 c 2,0 3.74,0.86 3.74,2.51 0,0.93 -0.55,1.89 -1.71,2.22 0.95,0.3 1.54,1.11 1.67,2.21 0.05,0.44 0.07,1.49 0.39,1.9 z m 11.75,0 -0.48,-1.27 h -3.65 l -0.51,1.27 h -3.55 l 4.21,-8.84 h 3.46 l 4.17,8.84 z m 3.52,-10.61 h -4.04 l 4.8,-8.52 h 3.93 l 4.77,8.52 h -4.18 l -0.55,-1.21 h -4.15 z m 9.53,10.61 h -8.61 v -8.84 h 3.53 v 6.57 h 5.08 z"
   class="st5" />
	<g
   id="g50">
		<g
   id="g48">
			<g
   id="g46">
				<path
   id="path44"
   d="m 300.75,336.81 c 0.1,-0.04 0.15,-0.17 0.11,-0.28 l -0.16,-0.38 c -0.02,-0.07 -0.1,-0.13 -0.18,-0.13 -0.03,0 -0.06,0.01 -0.09,0.02 l -11.45,3.43 c -0.57,0.17 -0.46,0.55 -0.41,0.64 l 0.29,0.76 c 0.1,0.27 0.25,0.39 0.44,0.39 0.06,0 0.13,-0.01 0.2,-0.04 z m -11.45,4.18 c -0.08,0 -0.15,-0.12 -0.18,-0.22 l -0.3,-0.78 c 0,0 -0.02,-0.06 0,-0.11 0.03,-0.06 0.12,-0.11 0.25,-0.15 l 11.41,-3.42 0.11,0.26 -11.19,4.39 c -0.04,0.02 -0.08,0.03 -0.1,0.03 z m 11.89,-3.61 c -0.03,-0.08 -0.11,-0.14 -0.2,-0.14 -0.02,0 -0.05,0 -0.07,0.01 l -11.24,4.43 c -0.29,0.11 -0.37,0.35 -0.22,0.68 l 0.29,0.75 c 0.04,0.08 0.15,0.29 0.42,0.29 0.09,0 0.2,-0.02 0.33,-0.08 l 10.71,-5.3 c 0.11,-0.04 0.16,-0.17 0.11,-0.27 z m -10.81,5.71 c -0.08,0.04 -0.15,0.05 -0.21,0.05 -0.03,0 -0.11,0 -0.17,-0.12 l -0.29,-0.77 c -0.04,-0.1 -0.06,-0.19 -0.04,-0.24 0.01,-0.04 0.07,-0.06 0.11,-0.08 l 11.17,-4.41 0.1,0.27 z m 11.66,-5.49 -0.17,-0.44 c -0.04,-0.12 -0.15,-0.3 -0.31,-0.41 0.05,-0.2 0.01,-0.4 -0.04,-0.52 l -0.18,-0.45 c -0.14,-0.32 -0.43,-0.5 -0.8,-0.5 -0.18,0 -0.32,0.04 -0.33,0.04 l -10.81,3.08 c -0.98,0.22 -1.62,0.58 -1.91,1.05 -0.22,0.37 -0.15,0.67 -0.14,0.71 0,0.01 0.01,0.02 0.01,0.03 l 1.45,3.69 c 0,0.01 0.01,0.02 0.02,0.04 0.03,0.05 0.28,0.47 0.99,0.47 0.48,0 1.05,-0.19 1.71,-0.58 l 10,-5.13 c 0.33,-0.14 0.73,-0.55 0.51,-1.08 z m -0.63,0.83 -10.01,5.13 c -1.84,1.07 -2.3,0.22 -2.3,0.22 l -1.45,-3.69 c 0,0 -0.25,-0.93 1.84,-1.4 l 10.81,-3.08 c 0,0 0.58,-0.18 0.78,0.29 l 0.18,0.44 c 0,0 0.15,0.37 -0.13,0.57 h 0.02 c -0.01,0.02 -0.01,0.02 -0.01,0.02 0.33,-0.05 0.47,0.33 0.47,0.33 l 0.17,0.44 c 0.19,0.48 -0.37,0.73 -0.37,0.73 z m 21.03,1.04 -11.45,-3.43 c -0.03,-0.02 -0.06,-0.02 -0.09,-0.02 -0.08,0 -0.15,0.05 -0.18,0.13 l -0.16,0.38 c -0.04,0.11 0.01,0.23 0.11,0.28 l 11.25,4.42 c 0.07,0.03 0.14,0.04 0.2,0.04 0.19,0 0.33,-0.13 0.44,-0.39 l 0.29,-0.76 c 0.05,-0.1 0.16,-0.48 -0.41,-0.65 z m 0.17,0.53 -0.3,0.78 c -0.04,0.1 -0.1,0.22 -0.18,0.22 -0.03,0 -0.06,-0.01 -0.1,-0.02 l -11.19,-4.39 0.11,-0.26 11.41,3.42 c 0.13,0.04 0.22,0.1 0.25,0.15 0.02,0.04 0,0.1 0,0.1 z m -0.87,1.69 -11.24,-4.43 c -0.02,-0.01 -0.05,-0.01 -0.07,-0.01 -0.09,0 -0.17,0.06 -0.2,0.14 l -0.14,0.38 c -0.05,0.1 0,0.23 0.12,0.27 l 10.71,5.3 c 0.13,0.06 0.24,0.08 0.33,0.08 0.27,0 0.38,-0.21 0.42,-0.29 l 0.29,-0.75 c 0.15,-0.34 0.07,-0.58 -0.22,-0.69 z m -0.03,0.57 -0.29,0.77 c -0.05,0.12 -0.14,0.12 -0.17,0.12 -0.06,0 -0.13,-0.02 -0.21,-0.05 l -10.67,-5.28 0.1,-0.27 11.17,4.41 c 0.05,0.02 0.1,0.04 0.11,0.08 0.03,0.03 0.01,0.12 -0.04,0.22 z m 0.3,-3.85 -10.81,-3.08 c -0.01,0 -0.15,-0.04 -0.33,-0.04 -0.37,0 -0.66,0.18 -0.8,0.5 l -0.18,0.45 c -0.05,0.12 -0.09,0.32 -0.04,0.52 -0.17,0.11 -0.27,0.29 -0.31,0.41 l -0.17,0.44 c -0.22,0.53 0.18,0.94 0.51,1.09 l 10,5.13 c 0.66,0.38 1.23,0.58 1.71,0.58 0.71,0 0.96,-0.42 0.99,-0.47 0.01,-0.01 0.01,-0.02 0.02,-0.04 l 1.45,-3.69 c 0,-0.01 0.01,-0.02 0.01,-0.03 0.01,-0.03 0.08,-0.34 -0.14,-0.71 -0.29,-0.49 -0.93,-0.84 -1.91,-1.06 z m 1.77,1.68 -1.45,3.69 c 0,0 -0.47,0.85 -2.31,-0.22 l -10.01,-5.13 c 0,0 -0.56,-0.25 -0.37,-0.72 l 0.17,-0.44 c 0,0 0.14,-0.38 0.47,-0.33 0,0 -0.01,0 -0.01,-0.02 h 0.03 c -0.28,-0.2 -0.13,-0.57 -0.13,-0.57 l 0.18,-0.44 c 0.2,-0.47 0.78,-0.29 0.78,-0.29 l 10.81,3.08 c 2.09,0.46 1.84,1.39 1.84,1.39 z m 11.64,-22.77 c -0.32,-1.3 -2.02,-2.73 -2.26,-2.92 -0.92,-0.81 -2.94,-1.75 -4.06,-2.23 0.01,-0.02 0.03,-0.05 0.04,-0.07 l 0.05,-0.09 0.01,-0.1 c 0.16,-1.21 -1.28,-2.61 -1.6,-2.9 -1.75,-1.74 -7.83,-3.95 -8.1,-4.05 -4.98,-1.74 -5.96,-2.51 -6.04,-2.58 -0.17,-0.16 -0.42,-0.37 -0.75,-0.37 -0.21,0 -0.41,0.09 -0.55,0.25 -0.26,0.3 -0.25,0.78 -0.21,1.07 -0.16,2.26 -0.54,3.54 -0.87,4.25 l 0.44,0.44 c 0.41,-0.77 0.85,-2.18 1.02,-4.7 0,0 -0.17,-1.2 0.53,-0.51 0,0 0.79,0.79 6.25,2.7 0,0 6.22,2.25 7.89,3.92 0,0 1.55,1.41 1.42,2.4 0,0 -0.18,0.34 -0.46,0.25 -0.92,-0.15 -1.53,-0.52 -1.53,-0.52 -0.29,-0.29 -0.73,-0.57 -0.73,-0.57 -0.46,-0.36 -2.14,-0.26 -2.14,-0.26 l -0.05,0.12 c 0.29,0.08 0.79,0.37 0.79,0.37 1.02,1.02 1.86,0.73 1.86,0.73 0.4,-0.02 1.75,0.42 1.75,0.42 0,0 3.47,1.38 4.67,2.46 0,0 1.82,1.48 2.08,2.65 0,0 0.59,1.47 0.07,3.27 0,0 -0.09,0.51 -0.6,-0.21 0,0 -1.5,-2.12 -5.71,-2.53 0,0 -5.01,-0.4 -7.13,-0.01 l 0.51,0.51 c 0.47,-0.06 1.17,-0.1 2.21,-0.1 2.09,0 4.35,0.18 4.36,0.18 3.85,0.37 5.28,2.27 5.29,2.29 0.21,0.3 0.5,0.64 0.92,0.64 0.35,0 0.64,-0.25 0.73,-0.62 0.49,-1.8 0,-3.3 -0.1,-3.58 z m -36.75,6.4 c 0.12,0.16 0.3,0.25 0.53,0.27 0.12,0.32 0.56,1.19 1.95,1.19 h 0.16 c 1.41,0 1.85,-0.86 1.96,-1.19 0.24,-0.02 0.43,-0.12 0.55,-0.28 0.27,-0.36 0.13,-0.91 0.11,-0.99 l -1.79,-10.49 h 2.7 c -0.08,0.22 -0.11,0.48 -0.11,0.76 0,0.54 0.17,1.02 0.46,1.34 -0.08,0.87 -0.33,4.16 -0.34,4.2 0,0 0,0.01 0,0.01 0,0.54 0.25,0.75 0.41,0.83 v 0.04 c -0.09,0.03 -0.16,0.07 -0.23,0.14 -0.28,0.29 -0.28,0.87 -0.27,0.93 0,0.57 0.15,0.82 0.29,0.92 -0.75,0.45 -0.83,2.24 -0.83,2.45 -0.13,1.73 0.45,2.26 0.71,2.41 v 0.38 c -0.9,0.13 -1.46,0.88 -1.49,0.92 0,0 0,0.01 -0.01,0.01 -0.29,0.45 -0.36,0.79 -0.23,1.03 0.1,0.18 0.32,0.28 0.61,0.28 0.05,0 0.09,0 0.11,0 h 4.07 c 0.02,0 0.06,0 0.11,0 0.29,0 0.51,-0.1 0.62,-0.29 0.13,-0.24 0.06,-0.57 -0.22,-1.03 0,0 0,-0.01 -0.01,-0.01 -0.02,-0.03 -0.58,-0.78 -1.48,-0.92 v -0.38 c 0.25,-0.15 0.84,-0.68 0.69,-2.4 -0.01,-0.22 -0.08,-2.01 -0.82,-2.46 0.14,-0.1 0.28,-0.34 0.28,-0.91 0,-0.06 0.02,-0.64 -0.25,-0.93 -0.07,-0.07 -0.14,-0.12 -0.23,-0.14 v -0.04 c 0.16,-0.08 0.41,-0.29 0.41,-0.83 0,0 0,-0.01 0,-0.01 0,-0.03 -0.26,-3.34 -0.34,-4.2 0.29,-0.33 0.46,-0.82 0.46,-1.34 0,-0.26 -0.05,-0.52 -0.13,-0.76 h 2.7 l -1.79,10.49 c -0.02,0.08 -0.16,0.64 0.11,1 0.12,0.16 0.31,0.26 0.55,0.28 0.12,0.32 0.56,1.19 1.97,1.19 h 0.16 c 1.39,0 1.83,-0.87 1.95,-1.19 0.23,-0.02 0.41,-0.11 0.53,-0.27 0.28,-0.36 0.15,-0.93 0.13,-1 l -1.81,-10.55 c 0,-0.01 -0.01,-0.03 -0.01,-0.04 0,-0.01 0,-0.02 0,-0.02 0,-0.01 0,-0.01 0,-0.02 -0.06,-0.57 -0.82,-0.74 -0.85,-0.75 0,0 -0.01,0 -0.01,0 l -4.2,-0.57 v -0.07 c 0.18,-0.03 0.27,-0.18 0.29,-0.26 0,-0.02 0,-0.03 0,-0.05 l -0.14,-1.47 c -0.05,-0.31 -0.27,-0.49 -0.61,-0.49 -0.02,0 -0.04,0 -0.06,0 -0.02,0 -0.04,0 -0.06,0 -0.34,0 -0.57,0.18 -0.62,0.51 l -0.13,1.46 c 0,0.02 0,0.03 0,0.05 0.02,0.08 0.1,0.22 0.27,0.26 v 0.07 l -4.18,0.58 c -0.03,0.01 -0.82,0.17 -0.88,0.75 0,0 0,0.01 0,0.02 0,0.02 0,0.03 0,0.04 0,0.01 0,0.02 0,0.03 l -1.8,10.53 c -0.07,0.06 -0.2,0.63 0.08,0.98 z m 0.17,-0.93 c 0,0 0,-0.01 0,-0.01 l 1.8,-10.55 c 0,-0.01 0,-0.02 0,-0.03 0,-0.01 0,-0.02 0,-0.03 0,-0.02 0,-0.03 0,-0.05 0.04,-0.34 0.63,-0.47 0.63,-0.47 l 4.31,-0.59 c 0.08,-0.01 0.13,-0.08 0.13,-0.15 v -0.36 c 0,-0.05 -0.02,-0.09 -0.06,-0.12 -0.04,-0.03 -0.08,-0.04 -0.13,-0.03 -0.01,0 -0.03,0 -0.04,0 -0.01,0 -0.04,0 -0.05,-0.02 l 0.12,-1.41 c 0.02,-0.11 0.07,-0.23 0.31,-0.23 0.02,0 0.04,0 0.05,0 0.01,0 0.01,0 0.02,0 0.01,0 0.03,0 0.05,0 0.24,0 0.29,0.13 0.31,0.23 l 0.13,1.42 c -0.01,0.01 -0.05,0.03 -0.11,0.02 -0.04,-0.01 -0.09,0 -0.13,0.03 -0.04,0.03 -0.06,0.07 -0.06,0.12 v 0.36 c 0,0.08 0.06,0.14 0.13,0.15 l 4.33,0.59 c 0.05,0.01 0.56,0.15 0.61,0.47 0,0.04 0,0.08 0.02,0.13 l 1.81,10.53 c 0,0 0,0.01 0,0.01 0.03,0.14 0.09,0.53 -0.08,0.74 -0.08,0.11 -0.22,0.16 -0.41,0.16 -0.07,0 -0.14,0.05 -0.15,0.12 0,0.01 -0.23,1.06 -1.68,1.06 h -0.16 c -1.46,0 -1.7,-1.02 -1.71,-1.06 -0.01,-0.07 -0.08,-0.12 -0.15,-0.12 -0.2,0 -0.33,-0.05 -0.42,-0.16 -0.16,-0.21 -0.09,-0.6 -0.05,-0.74 0,-0.01 0,-0.01 0,-0.02 l 1.8,-10.55 c 0,-0.01 0,-0.02 0,-0.04 0,-0.01 0,-0.03 0.01,-0.07 0.02,-0.05 0.01,-0.1 -0.02,-0.14 -0.03,-0.04 -0.08,-0.07 -0.13,-0.07 h -3.11 c -0.05,0 -0.1,0.03 -0.13,0.07 -0.03,0.05 -0.03,0.1 -0.01,0.15 0.13,0.25 0.2,0.55 0.2,0.84 0,0.47 -0.16,0.91 -0.43,1.18 -0.03,0.03 -0.05,0.08 -0.04,0.12 0.07,0.72 0.33,4.09 0.34,4.26 0,0.5 -0.27,0.56 -0.28,0.57 -0.08,0.01 -0.13,0.08 -0.13,0.15 v 0.28 c 0,0.08 0.07,0.15 0.15,0.15 0.07,0 0.12,0.02 0.16,0.07 0.16,0.17 0.17,0.56 0.17,0.71 0,0.55 -0.14,0.67 -0.17,0.68 -0.04,-0.01 -0.09,0 -0.12,0.03 -0.04,0.03 -0.06,0.07 -0.06,0.12 v 0.16 c 0,0.07 0.05,0.13 0.12,0.15 0.52,0.13 0.75,1.44 0.78,2.25 0.16,1.87 -0.58,2.13 -0.58,2.14 -0.07,0.02 -0.11,0.08 -0.11,0.15 v 0.61 c 0,0.08 0.06,0.15 0.14,0.15 0.81,0.06 1.35,0.74 1.4,0.8 0.29,0.46 0.24,0.65 0.21,0.71 -0.06,0.11 -0.26,0.13 -0.35,0.13 -0.04,0 -0.08,0 -0.08,0 -0.01,0 -0.01,0 -0.02,0 h -4.09 c -0.01,0 -0.01,0 -0.02,0 0,0 -0.03,0 -0.08,0 -0.08,0 -0.28,-0.01 -0.34,-0.13 -0.03,-0.06 -0.08,-0.24 0.22,-0.71 0.04,-0.06 0.6,-0.75 1.4,-0.8 0.08,-0.01 0.14,-0.07 0.14,-0.15 v -0.61 c 0,-0.07 -0.05,-0.13 -0.11,-0.15 -0.01,0 -0.74,-0.27 -0.6,-2.15 0.02,-0.54 0.2,-2.1 0.79,-2.25 0.07,-0.02 0.12,-0.08 0.12,-0.15 v -0.16 c 0,-0.05 -0.01,-0.1 -0.06,-0.13 -0.04,-0.03 -0.08,-0.04 -0.13,-0.02 -0.05,-0.01 -0.19,-0.14 -0.19,-0.68 0,-0.14 0.02,-0.54 0.19,-0.71 0.05,-0.05 0.1,-0.07 0.16,-0.07 0.08,0 0.15,-0.07 0.15,-0.15 v -0.28 c 0,-0.07 -0.06,-0.14 -0.13,-0.15 -0.01,0 -0.28,-0.06 -0.28,-0.57 0.01,-0.17 0.28,-3.54 0.34,-4.26 0,-0.05 -0.01,-0.09 -0.05,-0.12 -0.26,-0.26 -0.41,-0.69 -0.41,-1.18 0,-0.33 0.06,-0.61 0.17,-0.84 0.02,-0.05 0.02,-0.1 -0.01,-0.15 -0.03,-0.05 -0.08,-0.07 -0.13,-0.07 h -3.1 c -0.04,0 -0.09,0.02 -0.12,0.05 -0.03,0.03 -0.04,0.08 -0.04,0.12 l 0.01,0.04 c 0,0.01 0,0.02 0.01,0.02 -0.01,0.02 -0.01,0.04 0,0.07 l 1.8,10.55 c 0,0.01 0,0.01 0,0.02 0,0 0.13,0.48 -0.05,0.73 -0.08,0.11 -0.22,0.17 -0.42,0.17 -0.07,0 -0.14,0.05 -0.15,0.12 -0.01,0.04 -0.23,1.06 -1.69,1.06 h -0.16 c -1.44,0 -1.67,-1.02 -1.68,-1.06 -0.01,-0.07 -0.08,-0.12 -0.15,-0.12 -0.19,0 -0.32,-0.05 -0.4,-0.16 -0.08,-0.18 -0.02,-0.58 0.01,-0.72 z m 2.08,-9.88 -1.68,9.84 h 1.68 z m 20.85,10.13 -0.03,-0.04 c -0.43,-0.46 -0.47,-0.8 -0.47,-0.86 0.04,-0.49 0.03,-0.92 -0.01,-1.3 l -0.55,0.53 c 0.01,0.23 0,0.47 -0.03,0.73 0,0 -0.04,0.58 0.63,1.29 0,0 2.11,2.64 3.12,4.18 0,0 1.16,1.34 0.91,2.4 0,0 -0.06,1.01 -1.34,1.06 0,0 -1.05,0.15 -1.16,0.42 0,0 -0.21,0.27 0,0.6 0,0 0.25,0.45 -0.43,0.87 0,0 -0.25,0.18 -0.56,0.02 -0.09,-0.1 -0.26,-0.28 -0.4,-0.33 0,0 -1.05,-0.05 -1.64,-0.13 0,0 -0.67,0 -1.58,0.44 0,0 -0.61,0.28 -0.33,0.66 0,0 0.21,0.33 0.66,0.06 0,0 0.7,-0.47 1.44,-0.55 0,0 1.2,-0.23 1.63,0.07 v 0 c 0,0 0.39,0.38 0.2,0.8 0,0 -0.15,0.62 -0.83,0.62 0,0 -0.8,0.15 -0.52,0.92 0,0 0.45,1.2 0.2,1.92 l 0.56,0.16 c 0.28,-0.87 -0.13,-2.05 -0.21,-2.28 -0.02,-0.05 -0.02,-0.08 -0.02,-0.09 0.02,-0.01 0.05,-0.03 0.08,-0.04 0.79,-0.04 1.18,-0.64 1.29,-1.01 0.09,-0.21 0.1,-0.42 0.07,-0.61 0.13,-0.04 0.22,-0.1 0.27,-0.13 0.88,-0.56 0.8,-1.29 0.62,-1.62 0.15,-0.06 0.44,-0.13 0.69,-0.16 1.36,-0.06 1.81,-1.01 1.86,-1.55 0.26,-1.24 -0.8,-2.58 -1.02,-2.84 -0.99,-1.56 -3.01,-4.1 -3.1,-4.21 z m -16.17,12.11 16.18,-15.83 -0.64,-0.64 -10.46,-10.46 -4.73,-4.73 -15.84,15.83 z m 15.35,-15.83 -15.33,15 -14.65,-15 14.99,-14.99 z m -19.39,-6.41 v 9.84 h 1.69 z m 9.41,0 v 9.84 h 1.68 z m -0.66,9.84 v -9.84 l -1.68,9.84 z m -18.59,2.24 c 0.15,-0.25 0.8,-0.58 1.13,-0.76 0.2,-0.11 0.41,-0.21 0.52,-0.24 0.04,-0.02 0.08,-0.1 0.08,-0.1 0.01,-0.04 0.01,-0.07 0.01,-0.1 l -0.19,-0.2 c -0.03,-0.01 -0.05,-0.01 -0.05,-0.01 -0.42,0.04 -1.5,0.37 -1.5,0.37 -0.72,0.21 -1.19,0.74 -1.19,0.74 -0.29,0.36 -0.08,0.78 0.33,0.87 0.41,0.1 0.73,-0.38 0.86,-0.57 z m -5.41,-5.71 -0.01,-0.04 c -0.05,-0.19 -0.11,-0.68 0.07,-0.92 0.12,-0.15 0.37,-0.22 0.75,-0.19 h 0.02 c 0.73,0.03 1.83,0.18 2.68,0.46 l 0.46,-0.46 c -1.31,-0.5 -3.11,-0.58 -3.11,-0.58 -1.99,-0.16 -1.42,1.84 -1.42,1.84 0.28,1.3 -0.42,0.68 -0.42,0.68 l -0.42,-0.37 c -0.67,-0.46 -0.79,-0.21 -0.79,-0.21 0.27,1.42 -0.53,0.9 -0.53,0.9 l -0.56,-0.33 c -1.02,-0.68 -1.22,-0.27 -1.22,-0.27 l 0.31,1.18 c 0.31,1.14 -0.47,0.51 -0.47,0.51 0,0 -0.85,-0.51 -1.15,-0.67 -0.32,-0.16 -0.69,-0.7 -0.69,-0.7 -1.11,-0.05 -1.63,-0.84 -1.63,-0.84 -0.16,-0.13 -0.3,-0.26 -0.43,-0.4 1.3,-0.5 2.12,-1.04 2.12,-1.04 0.29,-0.21 0.32,-0.46 0.65,-1.04 0.17,-0.27 0.46,-1.11 0.46,-1.11 -0.05,-0.41 -0.43,-0.02 -0.43,-0.02 -0.17,0.62 -0.87,1.81 -0.87,1.81 -0.4,0.4 -1.83,0.96 -2.18,1.1 -0.54,-0.74 -0.68,-1.48 -0.68,-1.48 -0.53,-1.33 1.73,-2.47 1.73,-2.47 1.32,-0.68 4.05,-2.08 4.05,-2.08 2.02,-0.78 2.59,-1.97 2.59,-1.97 -0.18,-1.23 1.12,-1.93 1.79,-2.19 0.7,-0.26 1.99,-0.87 1.99,-0.87 1.42,-0.83 2.21,-0.88 2.21,-0.88 0.64,0.01 1.05,0.02 1.18,-0.41 0.15,-0.41 0.72,-0.8 1.04,-1.11 0.32,-0.32 1.32,-1.76 1.53,-2.03 0.21,-0.26 0.41,-0.36 0.41,-0.36 0.62,-0.69 1.21,-0.39 1.21,-0.39 1.28,0.84 1.97,3.59 1.97,3.59 0.42,0.93 1.02,1.67 1.72,2.25 l 0.41,-0.41 c -0.7,-0.57 -1.22,-1.24 -1.58,-2.03 -0.13,-0.48 -0.84,-2.98 -2.21,-3.88 l -0.05,-0.03 c -0.06,-0.03 -0.28,-0.13 -0.59,-0.13 -0.32,0 -0.79,0.1 -1.24,0.57 -0.12,0.08 -0.32,0.22 -0.5,0.45 -0.08,0.1 -0.21,0.28 -0.44,0.6 -0.33,0.45 -0.87,1.2 -1.04,1.38 -0.07,0.07 -0.17,0.15 -0.27,0.24 -0.35,0.3 -0.75,0.65 -0.91,1.09 v 0 c -0.05,0.01 -0.15,0.02 -0.37,0.02 -0.07,0 -0.15,0 -0.22,0 h -0.06 -0.02 c -0.09,0.01 -0.96,0.09 -2.44,0.95 -0.17,0.08 -1.3,0.61 -1.92,0.84 h -0.01 c -1.42,0.56 -2.21,1.51 -2.17,2.59 -0.19,0.29 -0.8,1.02 -2.2,1.56 l -0.05,0.02 c 0,0 -2.73,1.4 -4.05,2.08 -1.01,0.51 -2.55,1.74 -2.03,3.16 0.07,0.28 0.41,1.54 1.49,2.42 0.18,0.23 0.75,0.85 1.74,0.99 0.17,0.22 0.45,0.51 0.74,0.66 0.23,0.12 0.84,0.48 1.09,0.63 0.13,0.1 0.41,0.28 0.71,0.28 0.23,0 0.45,-0.1 0.58,-0.28 0.25,-0.33 0.17,-0.78 0.07,-1.13 l -0.09,-0.35 c 0.04,0.02 0.07,0.05 0.12,0.07 l 0.58,0.34 c 0.09,0.05 0.31,0.18 0.59,0.18 0.25,0 0.48,-0.11 0.64,-0.3 0.1,-0.12 0.17,-0.27 0.21,-0.46 l 0.22,0.19 c 0.1,0.09 0.37,0.29 0.69,0.29 0.22,0 0.43,-0.1 0.57,-0.27 0.17,-0.22 0.21,-0.6 0.08,-1.22 z m 9.56,-15.44 c 0,0.27 -0.38,0.6 -0.38,0.6 -0.61,0.51 -0.54,1.62 -0.54,1.62 0.07,1 0.62,0.98 0.62,0.98 0.49,-0.11 0.09,-0.39 0.09,-0.39 -0.29,-0.18 -0.29,-0.91 -0.29,-0.91 -0.05,-0.76 0.56,-1.3 0.56,-1.3 0.21,-0.1 0.18,-0.35 0.18,-0.35 -0.11,-0.52 0.17,-1.42 0.17,-1.42 -0.33,-0.33 -0.41,0.89 -0.41,1.17 z m -5.21,5.07 c -0.67,0.36 -0.82,0.43 -0.82,0.43 -0.49,0.27 -1.71,0.67 -1.71,0.67 -0.57,0.22 -0.77,0.34 -0.87,0.59 -0.12,0.32 0.03,0.72 0.03,0.72 0.27,0.73 1.2,0.22 1.43,-0.09 0.24,-0.34 0.94,-0.9 1.31,-1.26 0.31,-0.32 0.94,-0.72 1.14,-0.86 0.02,-0.02 0.09,-0.13 0.09,-0.13 0.04,-0.4 -0.6,-0.07 -0.6,-0.07 z m 30.8,21.03 c 0,0 0.39,0.1 0.72,0.1 0.34,0 0.67,0.2 0.82,-0.13 0,0 0.11,-0.39 -0.33,-0.43 0,0 -0.49,0.08 -1.4,-0.05 -0.9,-0.16 -1,0.52 -1,0.82 0,0.27 0.29,0.71 1,0.85 0,0 0.11,0.02 0.18,0.02 0.08,-0.02 0.25,-0.03 0.36,-0.02 0,0 0.55,0.13 0.53,-0.29 0,0 0.01,-0.31 -0.87,-0.18 0,0 -0.65,0 -0.57,-0.46 -0.01,-0.01 0.05,-0.27 0.56,-0.23 z m -32.32,1.04 c -0.01,0.07 -0.04,0.16 -0.11,0.22 -0.12,0.08 -0.34,0.28 -0.43,0.62 -0.06,0.24 -0.08,0.62 0.21,1.11 0.02,0.03 0.07,0.1 0.15,0.19 -0.03,0.06 -0.05,0.13 -0.07,0.2 -0.04,0.21 -0.04,0.52 0.2,0.85 0.03,0.04 0.18,0.24 0.45,0.39 0.01,0.03 0.01,0.11 -0.03,0.25 -0.12,0.44 -0.22,0.63 -0.24,0.66 -0.36,0.41 -0.78,1.39 0.03,2.35 l 0.68,-0.19 -0.21,-0.16 c -0.76,-0.87 -0.04,-1.64 -0.04,-1.64 0,0 0.17,-0.19 0.35,-0.88 0.2,-0.73 -0.24,-0.9 -0.24,-0.9 -0.18,-0.09 -0.27,-0.22 -0.27,-0.22 -0.18,-0.24 -0.12,-0.45 -0.01,-0.59 0.35,-0.23 0.92,-0.07 1.23,-0.03 0.29,0.06 1.34,0.4 1.34,0.4 0.29,0.15 0.9,0.32 0.9,0.32 0.38,0.13 0.31,-0.33 0.31,-0.33 -0.01,-0.31 -0.25,-0.36 -0.25,-0.36 -0.59,-0.19 -0.79,-0.4 -0.79,-0.4 -0.41,-0.39 -1.75,-0.14 -1.75,-0.14 -0.6,0.14 -0.96,0.11 -1.09,0.09 -0.1,-0.1 -0.15,-0.18 -0.15,-0.18 -0.41,-0.69 0.08,-0.96 0.08,-0.96 0.4,-0.33 0.33,-0.87 0.33,-0.87 -0.13,-0.42 -0.69,-0.42 -0.69,-0.42 -1.69,0.06 -2.3,-1.53 -2.3,-1.53 -0.61,-1.44 0.61,-2.63 0.61,-2.63 0.63,-0.68 3.72,-4.19 3.72,-4.19 0.11,-0.12 0.2,-0.26 0.27,-0.41 l -0.45,-0.46 c -0.05,0.18 -0.13,0.35 -0.24,0.48 l -0.01,0.02 c -0.03,0.03 -3.07,3.49 -3.7,4.17 -0.16,0.16 -1.45,1.54 -0.73,3.25 0.08,0.19 0.84,1.96 2.84,1.9 0.03,0 0.07,0.01 0.1,0.02 z m 30.36,-7.04 c -0.54,-0.29 -0.97,0 -0.97,0 -0.07,0.09 -0.09,0.2 -0.09,0.2 0.2,0.53 1,1.14 1,1.14 0.49,0.35 1.73,0.63 1.73,0.63 0.82,0.14 0.32,-0.53 0.32,-0.53 -0.47,-0.67 -1.46,-1.15 -1.99,-1.44 z m -17.07,14.73 c -0.12,0.18 -0.29,0.33 -0.47,0.44 1.33,0.53 2.66,0.8 3.95,0.8 1.77,0 3.02,-0.51 3.57,-0.79 -0.18,-0.11 -0.34,-0.25 -0.47,-0.42 -0.95,0.44 -3.33,1.19 -6.58,-0.03 z m -13.14,-9.54 c -0.58,-0.49 -1.15,-0.12 -1.25,-0.04 -0.1,0.09 -0.09,0.18 -0.04,0.24 0,0 0.1,0.14 0.2,0.02 0,0 0.06,-0.15 0.42,-0.12 0,0 0.45,0.04 0.89,0.42 0,0 0.49,0.33 1,0.16 0,0 0.14,-0.01 0.17,-0.13 0,0 0,-0.19 -0.26,-0.14 0,-0.01 -0.53,0.09 -1.13,-0.41 z"
   class="st5" />
			</g>
		</g>
	</g>
	<path
   id="path52"
   d="m 356,270.74 c -30.87,7.73 -48.42,-5.96 -50.07,-7.35 -1.68,1.39 -19.21,15.08 -50.1,7.35 l -5.46,12 c 0,0 5.49,3.58 9.84,10.22 h 91.41 c 4.35,-6.61 9.85,-10.16 9.85,-10.16 z m -65.03,16.55 c 1.3,0 2.73,-0.21 3.53,-0.48 l 0.73,3.02 c -0.7,0.29 -2.5,0.67 -4.81,0.67 -6.83,0 -9.89,-3.27 -9.89,-7.05 0,-4.88 4.61,-7.51 10.14,-7.51 2.18,0 4,0.33 4.83,0.71 l -0.98,3.05 c -0.85,-0.29 -2.1,-0.58 -3.68,-0.58 -2.83,0 -5.33,1.27 -5.33,4.07 0,2.41 1.98,4.1 5.46,4.1 z m 22.75,2.96 h -5.18 l -3.05,-4.65 c -1.08,-1.63 -2.28,-3.53 -3.25,-5.44 h -0.1 c 0.13,2.13 0.15,4.17 0.15,6.3 v 3.8 h -4.38 V 276.2 h 5.93 l 2.78,4.07 c 1.08,1.56 2.13,3.48 2.98,5.32 h 0.08 c -0.3,-2.09 -0.33,-3.8 -0.33,-5.72 v -3.67 h 4.38 v 14.05 z m 12.82,0 c -0.28,-0.42 -0.73,-1.4 -1.3,-3.21 -0.53,-1.69 -1.2,-2.02 -2.78,-2.02 h -0.85 v 5.24 h -4.68 v -13.87 c 1.33,-0.17 3.4,-0.31 5.96,-0.31 2.83,0 4.71,0.33 6.01,1.11 1.08,0.65 1.75,1.67 1.75,3.09 0,1.88 -1.83,3.07 -3,3.38 v 0.08 c 1.13,0.4 1.75,1.31 2.23,2.48 0.58,1.44 1.15,3.5 1.48,4.05 h -4.82 z m -3.13,-11.3 c -1.05,0 -1.55,0.04 -1.8,0.08 v 3.21 h 1.4 c 1.85,0 2.95,-0.63 2.95,-1.69 0,-1.06 -0.95,-1.6 -2.55,-1.6 z"
   class="st5" />
	<g
   id="g60">
		<polygon
   id="polygon54"
   points="356.83,268.75 363.6,283.36 363.22,283.61 367.73,284.94 368.26,284.64 358.83,264.25 358.4,264.37 356.3,268.88 "
   class="st5" />
		<path
   id="path56"
   d="m 305.94,383.39 c -13.71,-9.33 -32.89,-12.22 -32.89,-12.22 -13.71,-2.35 -17.41,-11.9 -17.41,-11.9 -5.06,-12.83 1.76,-27.03 2.83,-30.15 1.05,-3.1 3.98,-11.28 3.98,-11.28 1.95,-8.27 0.39,-14.98 0.39,-14.98 -2.67,-12.02 -14.05,-19.36 -14.5,-19.65 l 0.29,-0.63 -4.76,1.44 -0.29,0.64 c 0,0 15.85,8.37 16.03,23.46 0,0 0.5,5.75 -2.32,13.13 0,0 -6.41,15.38 -7.1,23.65 0,0 -3.79,21.3 16.44,28.4 0,0 3.31,1.17 9.04,2.06 0,0 18.88,3.89 30.27,12.74 l 0.38,-0.29 v -4.67 z"
   class="st5" />
		<path
   id="path58"
   d="m 305.94,256.08 c -1.39,1.51 -18.02,18.44 -52.95,8.17 l -0.27,0.59 2.02,4.55 0.29,-0.64 c 31.8,8.1 48.48,-5.39 50.91,-7.54 v 0.01 l 0.26,0.23 v -5.09 z"
   class="st5" />
	</g>
	<g
   id="g68">
		<polygon
   id="polygon62"
   points="243.57,284.66 248.33,283.21 255.03,268.75 252.99,264.25 "
   class="st6" />
		<path
   id="path64"
   d="m 358.83,264.25 c -34.83,10.21 -51.5,-6.64 -52.9,-8.17 v 5.14 c 2.41,2.16 19.13,15.58 50.89,7.53 z"
   class="st6" />
		<path
   id="path66"
   d="m 305.94,388.1 c 11.39,-8.87 30.24,-12.74 30.24,-12.74 5.73,-0.9 9.04,-2.06 9.04,-2.06 20.24,-7.1 16.45,-28.4 16.45,-28.4 -0.69,-8.28 -7.11,-23.65 -7.11,-23.65 -2.82,-7.38 -2.33,-13.13 -2.33,-13.13 0.19,-14.69 15.25,-23.05 16.04,-23.48 l -4.67,-1.28 c -0.41,0.25 -11.9,7.46 -14.59,19.5 0,0 -1.56,6.71 0.4,14.98 0,0 2.91,8.18 3.99,11.28 1.07,3.12 7.87,17.32 2.81,30.15 0,0 -3.68,9.55 -17.41,11.9 0,0 -19.16,2.91 -32.86,12.22 z"
   class="st6" />
	</g>
	<rect
   id="rect70"
   height="4.4699998"
   width="28.879999"
   class="st1"
   y="294.20001"
   x="291.48001" />
	<g
   id="g86">
		<polygon
   id="polygon72"
   points="387.07,306.27 407.31,244.27 402.08,248.18 382.78,306.92 387.08,306.29 "
   class="st6" />
		<polygon
   id="polygon74"
   points="339.93,254.05 341.65,250.74 306.01,195.99 306.01,202.18 "
   class="st6" />
		<polygon
   id="polygon76"
   points="425.74,351.29 368.01,373.53 371.31,376.38 432.52,353.17 "
   class="st6" />
		<polygon
   id="polygon78"
   points="306.01,402.74 306.01,407.44 362.51,441.27 359.53,434.89 "
   class="st6" />
		<polygon
   id="polygon80"
   points="270.37,250.74 272.08,254.04 209.92,248.18 204.68,244.27 "
   class="st6" />
		<polygon
   id="polygon82"
   points="186.32,351.31 179.49,353.17 224.94,306.29 229.23,306.92 "
   class="st6" />
		<polygon
   id="polygon84"
   points="244.01,373.53 252.47,434.89 249.5,441.27 240.7,376.38 240.69,376.38 "
   class="st6" />
	</g>
	<g
   id="g102">
		<polygon
   id="polygon88"
   points="372,308.46 378.23,307.57 396.38,252.34 388.61,258.12 "
   class="st9" />
		<polygon
   id="polygon90"
   points="335.08,263.42 337.86,258.04 306.01,209.42 306.01,218.88 "
   class="st9" />
		<polygon
   id="polygon92"
   points="364.15,370.05 418.66,349.39 408.97,346.74 359.2,365.66 359.2,365.69 "
   class="st9" />
		<polygon
   id="polygon94"
   points="351.88,418.32 306.01,390.83 306.01,397.79 356.17,427.61 351.88,418.32 "
   class="st9" />
		<polygon
   id="polygon96"
   points="276.95,263.42 223.39,258.1 215.63,252.34 274.17,258.04 276.95,263.41 "
   class="st9" />
		<polygon
   id="polygon98"
   points="233.77,307.57 240,308.48 203.04,346.74 193.36,349.39 "
   class="st9" />
		<polygon
   id="polygon100"
   points="260.13,418.32 255.83,427.61 247.86,370.05 252.8,365.66 "
   class="st9" />
	</g>
</g>
</svg>
